<svg xmlns="http://www.w3.org/2000/svg" xmlns:xlink="http://www.w3.org/1999/xlink" width="1232.102" height="1219.624" viewBox="0 0 1232.102 1219.624">
  <defs>
    <linearGradient id="linear-gradient" y1="0.5" x2="1" y2="0.5" gradientUnits="objectBoundingBox">
      <stop offset="0.004" stop-color="#e38ddd"/>
      <stop offset="1" stop-color="#9571f6"/>
    </linearGradient>
    <linearGradient id="linear-gradient-2" x1="0.817" y1="-0.026" x2="0.049" y2="1.235" gradientUnits="objectBoundingBox">
      <stop offset="0" stop-color="#ff9085"/>
      <stop offset="1" stop-color="#fb6fbb"/>
    </linearGradient>
    <linearGradient id="linear-gradient-3" x1="0.418" y1="0.074" x2="0.809" y2="2.101" gradientUnits="objectBoundingBox">
      <stop offset="0" stop-color="#444b8c"/>
      <stop offset="0.996" stop-color="#26264f"/>
    </linearGradient>
    <linearGradient id="linear-gradient-4" x1="0.419" y1="0.069" x2="0.807" y2="2.121" gradientUnits="objectBoundingBox">
      <stop offset="0" stop-color="#ffc444"/>
      <stop offset="0.996" stop-color="#f36f56"/>
    </linearGradient>
    <linearGradient id="linear-gradient-5" x1="0.597" y1="0.23" x2="0.124" y2="1.547" xlink:href="#linear-gradient-4"/>
    <linearGradient id="linear-gradient-6" x1="0.564" y1="-0.758" x2="0.27" y2="4.637" xlink:href="#linear-gradient-3"/>
    <linearGradient id="linear-gradient-7" x1="0.736" y1="0.026" x2="-0.589" y2="2.686" xlink:href="#linear-gradient-3"/>
    <linearGradient id="linear-gradient-8" x1="0.503" y1="-5.062" x2="0.494" y2="10.943" xlink:href="#linear-gradient-4"/>
    <linearGradient id="linear-gradient-9" y1="0.5" x2="1" y2="0.5" gradientUnits="objectBoundingBox">
      <stop offset="0" stop-color="#aa80f9"/>
      <stop offset="0.996" stop-color="#6165d7"/>
    </linearGradient>
    <linearGradient id="linear-gradient-10" x1="7.328" y1="-2.57" x2="7.494" y2="2.836" gradientUnits="objectBoundingBox">
      <stop offset="0.004" stop-color="#26264f"/>
      <stop offset="1" stop-color="#444b8c"/>
    </linearGradient>
    <linearGradient id="linear-gradient-11" x1="-11.485" y1="-7.079" x2="-11.601" y2="-13.577" xlink:href="#linear-gradient-4"/>
    <linearGradient id="linear-gradient-12" x1="7.328" y1="-2.57" x2="7.494" y2="2.836" xlink:href="#linear-gradient-10"/>
    <linearGradient id="linear-gradient-13" x1="-11.464" y1="-6.161" x2="-11.58" y2="-12.659" xlink:href="#linear-gradient-4"/>
    <linearGradient id="linear-gradient-14" x1="0.74" y1="-0.103" x2="0.57" y2="0.191" gradientUnits="objectBoundingBox">
      <stop offset="0" stop-color="#893976"/>
      <stop offset="1" stop-color="#311944"/>
    </linearGradient>
    <linearGradient id="linear-gradient-15" x1="0" y1="0.5" x2="1" y2="0.5" xlink:href="#linear-gradient-14"/>
    <linearGradient id="linear-gradient-16" x1="0.155" y1="0.296" x2="0.802" y2="0.712" xlink:href="#linear-gradient-2"/>
    <linearGradient id="linear-gradient-17" x1="0.521" y1="0.074" x2="0.461" y2="1.199" xlink:href="#linear-gradient-4"/>
    <linearGradient id="linear-gradient-18" x1="22.995" y1="-4.095" x2="24.176" y2="-2.547" xlink:href="#linear-gradient-4"/>
    <linearGradient id="linear-gradient-19" x1="246.525" y1="-35.647" x2="260.844" y2="-21.859" xlink:href="#linear-gradient-4"/>
    <linearGradient id="linear-gradient-20" x1="-0.124" y1="0.253" x2="0.63" y2="0.79" xlink:href="#linear-gradient-2"/>
    <linearGradient id="linear-gradient-21" x1="0.672" y1="0.619" x2="1.587" y2="1.527" xlink:href="#linear-gradient-2"/>
    <linearGradient id="linear-gradient-22" x1="-1.322" y1="0.5" x2="-0.322" y2="0.5" xlink:href="#linear-gradient-9"/>
    <linearGradient id="linear-gradient-23" x1="-9.992" y1="0.5" x2="-8.992" y2="0.5" xlink:href="#linear-gradient-9"/>
    <linearGradient id="linear-gradient-24" x1="0.053" y1="1.084" x2="-0.101" y2="0.837" xlink:href="#linear-gradient-3"/>
    <linearGradient id="linear-gradient-25" x1="0" y1="0.5" x2="1" y2="0.5" xlink:href="#linear-gradient-3"/>
    <linearGradient id="linear-gradient-26" x1="0.575" y1="0.243" x2="0.37" y2="0.947" xlink:href="#linear-gradient-9"/>
  </defs>
  <g id="Group_583" data-name="Group 583" transform="translate(-441.562 -455)">
    <path id="Path_971" data-name="Path 971" d="M561.179,683.359c18.785-25.713,179.609-238.351,440.3-227.993,13.026.518,267.268,13.944,361.043,180.627,69.369,123.3-4.072,232.7,80.552,316.7,73.736,73.2,164.355,24.748,209.668,83.94,69.023,90.166-40.9,333.68-209.785,469.486-174.387,140.229-508.009,243.106-767.314,56.014C384.515,1352.086,387.469,921.126,561.179,683.359Z" transform="translate(0 0)" fill="#f4f7fa"/>
    <g id="Group_552" data-name="Group 552" transform="translate(595.165 1060.192)">
      <g id="Group_551" data-name="Group 551" transform="translate(0 0)">
        <path id="Path_972" data-name="Path 972" d="M1267.334,2057.351l-26.829.046a191.178,191.178,0,0,0-12.448-50.715l22.684-13.155a13.417,13.417,0,0,0,4.745-18.13l-9.532-17.142a13.079,13.079,0,0,0-17.844-5.285l-22.4,12.714a197.193,197.193,0,0,0-36.964-39.113l12.885-22.133a13.933,13.933,0,0,0-4.91-18.688l-17.148-10.64a13.264,13.264,0,0,0-18.567,4.267l-12.914,21.906a200.681,200.681,0,0,0-53.436-16.3v-25.978a14.785,14.785,0,0,0-14.105-14.521l-20.879-.952a13.434,13.434,0,0,0-14.326,13.375v26.264a203.091,203.091,0,0,0-55.956,12.788l-13.937-23.744a15.619,15.619,0,0,0-20.331-6.022l-19.094,9.793a13.7,13.7,0,0,0-5.523,19.442l14.441,24.292a201.665,201.665,0,0,0-41.9,39.719l-26.12-14.778c-7.406-4.19-16.909-2.018-21.212,4.875l-11.483,18.391c-4.332,6.939-1.76,15.943,5.731,20.088l27.028,14.957a193,193,0,0,0-14.759,55.1l-32.421.056c-8.725.015-15.822,6.628-15.822,14.771v21.655c0,8.143,7.1,14.656,15.822,14.547l33.281-.415a191.14,191.14,0,0,0,16.246,53.574l-29.376,16.672c-7.491,4.251-10.063,13.292-5.731,20.169l11.483,18.229c4.3,6.832,13.807,8.869,21.212,4.574l29.712-17.23a198.143,198.143,0,0,0,41,36.646L910.5,2270.389a13.578,13.578,0,0,0,5.523,19.364l19.094,9.522a15.771,15.771,0,0,0,20.331-6.309l16.988-29.183a201.567,201.567,0,0,0,52.905,10.968v32.532a13.212,13.212,0,0,0,14.326,13.172l20.879-1.248a15.045,15.045,0,0,0,14.105-14.72v-32.179a202.924,202.924,0,0,0,50.588-15.642l15.762,26.514c3.766,6.335,12.083,8.118,18.567,4l17.148-10.882c6.414-4.07,8.607-12.459,4.91-18.757l-15.3-26.067a201.244,201.244,0,0,0,36.262-37.246l25.52,14.122a13.2,13.2,0,0,0,17.844-5.537l9.532-17.277a13.3,13.3,0,0,0-4.745-18.063l-24.678-13.962a192.992,192.992,0,0,0,13.721-49.755l27.551-.343a13.237,13.237,0,0,0,12.842-13.4V2070.57A13.013,13.013,0,0,0,1267.334,2057.351Zm-217.2,160.1c-79.386,2.946-145.819-58.666-145.819-137.709s66.434-141.5,145.819-139.573c76.688,1.865,136.97,63.52,136.97,137.766S1126.822,2214.6,1050.134,2217.447Z" transform="translate(-793.982 -1843.522)" fill="#97a6b7"/>
        <path id="Path_973" data-name="Path 973" d="M1144.618,1892.362l-19.108-.659-6.589,17.132Z" transform="translate(-977.296 -1870.704)" fill="#97a6b7"/>
        <path id="Path_974" data-name="Path 974" d="M1612.6,1911.356l22.034.22v16.253Z" transform="translate(-1255.802 -1881.791)" fill="#97a6b7"/>
        <path id="Path_975" data-name="Path 975" d="M1805.258,2091.235l21.964.887-5.491,12.3Z" transform="translate(-1364.49 -1983.269)" fill="#97a6b7"/>
        <path id="Path_976" data-name="Path 976" d="M1884.373,2334.647l22.183,1.757-7.248,10.762Z" transform="translate(-1409.123 -2120.589)" fill="#97a6b7"/>
        <path id="Path_977" data-name="Path 977" d="M1799.715,2665.1l21.524,3.075,2.636-17.571Z" transform="translate(-1361.363 -2298.835)" fill="#97a6b7"/>
        <path id="Path_978" data-name="Path 978" d="M1610.745,2851.847l19.328,3.514,1.537-14.276Z" transform="translate(-1254.757 -2406.294)" fill="#97a6b7"/>
        <path id="Path_979" data-name="Path 979" d="M1366.563,2911.7l-17.351-3.075,14.935-22.183Z" transform="translate(-1107.213 -2431.88)" fill="#97a6b7"/>
        <path id="Path_980" data-name="Path 980" d="M1147.19,2871.706l-20.206-4.173,15.594-18.888Z" transform="translate(-981.844 -2410.559)" fill="#97a6b7"/>
        <path id="Path_981" data-name="Path 981" d="M912.819,2071.1l21.085.659-8.346,15.374Z" transform="translate(-861.023 -1971.909)" fill="#97a6b7"/>
        <path id="Path_982" data-name="Path 982" d="M816.571,2433.776l19.328,2.855-1.537-15.813Z" transform="translate(-806.725 -2169.202)" fill="#97a6b7"/>
        <path id="Path_983" data-name="Path 983" d="M911.811,2703.889l18.889,3.075,1.537-12.519Z" transform="translate(-860.455 -2323.568)" fill="#97a6b7"/>
      </g>
      <path id="Path_984" data-name="Path 984" d="M1311.987,2059.093l-27.051.046a192.7,192.7,0,0,0-12.552-51.128l22.872-13.262a13.526,13.526,0,0,0,4.785-18.278l-9.611-17.281a13.188,13.188,0,0,0-17.992-5.327l-22.587,12.818a198.794,198.794,0,0,0-37.27-39.432l12.991-22.313a14.046,14.046,0,0,0-4.951-18.84l-17.29-10.726a13.375,13.375,0,0,0-18.72,4.3l-13.021,22.085a202.375,202.375,0,0,0-53.879-16.428v-26.19a14.906,14.906,0,0,0-14.222-14.639l-21.052-.96a13.545,13.545,0,0,0-14.445,13.484V1883.5a204.793,204.793,0,0,0-56.42,12.892l-14.053-23.937a15.75,15.75,0,0,0-20.5-6.071l-19.252,9.872a13.808,13.808,0,0,0-5.569,19.6l14.561,24.489a203.309,203.309,0,0,0-42.25,40.042l-26.337-14.9c-7.467-4.224-17.048-2.034-21.388,4.915l-11.578,18.541c-4.368,7-1.775,16.073,5.778,20.252l27.252,15.079a194.547,194.547,0,0,0-14.881,55.553l-32.689.056c-8.8.015-15.953,6.682-15.953,14.892v21.832c0,8.209,7.155,14.775,15.953,14.666l33.558-.417a192.66,192.66,0,0,0,16.38,54.01l-29.619,16.808c-7.552,4.286-10.146,13.4-5.778,20.333l11.578,18.377c4.339,6.887,13.921,8.941,21.388,4.612l29.958-17.371a199.8,199.8,0,0,0,41.339,36.946L952.2,2273.867a13.687,13.687,0,0,0,5.569,19.522l19.252,9.6a15.9,15.9,0,0,0,20.5-6.361l17.129-29.42a203.273,203.273,0,0,0,53.344,11.057v32.8a13.321,13.321,0,0,0,14.445,13.28l21.052-1.258a15.168,15.168,0,0,0,14.222-14.84V2275.8a204.6,204.6,0,0,0,51.008-15.769l15.892,26.73c3.8,6.387,12.183,8.185,18.72,4.037l17.291-10.971c6.467-4.1,8.678-12.56,4.95-18.91l-15.428-26.28a202.868,202.868,0,0,0,36.562-37.549l25.731,14.238a13.313,13.313,0,0,0,17.992-5.583l9.611-17.418a13.41,13.41,0,0,0-4.785-18.209l-24.883-14.076a194.524,194.524,0,0,0,13.834-50.16l27.779-.346a13.347,13.347,0,0,0,12.948-13.51v-19.606A13.12,13.12,0,0,0,1311.987,2059.093Zm-219,161.4c-80.044,2.97-147.028-59.144-147.028-138.831s66.984-142.656,147.028-140.709c77.324,1.881,138.1,64.037,138.1,138.888S1170.311,2217.624,1092.987,2220.493Z" transform="translate(-816.96 -1843.522)" fill="#d8dee8"/>
    </g>
    <g id="Group_561" data-name="Group 561" transform="translate(487.689 581.83)">
      <g id="Group_554" data-name="Group 554" transform="translate(0)">
        <g id="Group_553" data-name="Group 553">
          <path id="Path_985" data-name="Path 985" d="M588.821,1516.715c-22.786,1.359-41.427-13.423-41.427-32.958V779.671c0-19.534,18.641-34.62,41.427-33.633L1642.579,791.7a31.852,31.852,0,0,1,30.275,31.443v598.819c0,16.615-13.546,30.939-30.275,31.937Z" transform="translate(-547.394 -745.992)" fill="#97a6b7"/>
          <path id="Path_986" data-name="Path 986" d="M610.549,1516.715c-22.786,1.359-41.427-13.423-41.427-32.958V779.671c0-19.534,18.641-34.62,41.427-33.633L1664.307,791.7a31.852,31.852,0,0,1,30.275,31.443v598.819c0,16.615-13.546,30.939-30.275,31.937Z" transform="translate(-559.652 -745.992)" fill="#fff"/>
          <path id="Path_987" data-name="Path 987" d="M1689.343,827.048,635.585,783.7c-12.181-.5-22.086,7.548-22.086,17.979v702.276c0,10.432,9.9,18.319,22.086,17.619l1053.758-60.511a17.346,17.346,0,0,0,16.217-17.071V843.856A17,17,0,0,0,1689.343,827.048Z" transform="translate(-584.687 -767.251)" fill="#d8dee8" opacity="0.3" style="mix-blend-mode: multiply;isolation: isolate"/>
          <path id="Path_988" data-name="Path 988" d="M653.033,1476.639c-4.742.234-8.6-2.877-8.6-6.933V817.078c0-4.057,3.863-7.206,8.6-7.018l1053.758,41.734a6.644,6.644,0,0,1,6.34,6.56v559.57a6.725,6.725,0,0,1-6.34,6.623Z" transform="translate(-602.135 -782.131)" fill="url(#linear-gradient)"/>
        </g>
        <path id="Path_989" data-name="Path 989" d="M1554.3,1410.314c-88.652-54.838-26.731-210.757-126.29-289.1-100.374-78.982-241.612,17.889-311.922-63.906-52.352-60.9,8.9-134.442-41.082-191.718C996.614,775.77,795.939,899.3,703.742,810.815c-13.09-12.564-26.3-31.625-33.818-62.2l-59.375-2.573c-22.786-.987-41.427,14.1-41.427,33.633v704.086c0,19.535,18.641,34.317,41.427,32.958l1053.758-62.82c16.729-1,30.275-15.322,30.275-31.937v-10.646C1624.612,1435.055,1581.838,1427.349,1554.3,1410.314Z" transform="translate(-559.652 -745.992)" fill="#fff" opacity="0.6" style="mix-blend-mode: soft-light;isolation: isolate"/>
      </g>
      <g id="Group_560" data-name="Group 560" transform="translate(109.404 91.581)">
        <path id="Path_990" data-name="Path 990" d="M798.405,2031.5l253.633-10.583V1887.949L798.405,1894.1Z" transform="translate(-798.405 -1481.805)" fill="#f4f7fa" style="mix-blend-mode: soft-light;isolation: isolate"/>
        <g id="Group_556" data-name="Group 556" transform="translate(1.062)" style="mix-blend-mode: soft-light;isolation: isolate">
          <g id="Group_555" data-name="Group 555" opacity="0.7">
            <path id="Path_991" data-name="Path 991" d="M2357.324,1325.369l38.533-.532V1043.109l-38.533-.988Z" transform="translate(-1678.927 -1004.634)" fill="#f4f7fa"/>
            <path id="Path_992" data-name="Path 992" d="M2197.777,1509.107l39.281-.542V1366.345l-39.281-.233Z" transform="translate(-1588.919 -1187.412)" fill="#f4f7fa"/>
            <path id="Path_993" data-name="Path 993" d="M2035.108,1287.232l40.051-.553V972.262l-40.051-1.176Z" transform="translate(-1497.15 -964.559)" fill="#f4f7fa"/>
            <path id="Path_994" data-name="Path 994" d="M1869.228,1346.781l40.843-.564V1075.811l-40.843-.938Z" transform="translate(-1403.569 -1023.11)" fill="#f4f7fa"/>
            <path id="Path_995" data-name="Path 995" d="M1700.042,1605.537l41.659-.575v-73.225l-41.659.164Z" transform="translate(-1308.123 -1280.849)" fill="#f4f7fa"/>
            <path id="Path_996" data-name="Path 996" d="M1527.446,1477.165l42.5-.586V1302.744l-42.5-.4Z" transform="translate(-1210.754 -1151.438)" fill="#f4f7fa"/>
            <path id="Path_997" data-name="Path 997" d="M1351.338,1376.433l43.367-.6V1122.763l-43.367-.85Z" transform="translate(-1111.403 -1049.648)" fill="#f4f7fa"/>
            <path id="Path_998" data-name="Path 998" d="M1171.613,1465.634l44.26-.611V1278.581l-44.26-.467Z" transform="translate(-1010.012 -1137.768)" fill="#f4f7fa"/>
            <path id="Path_999" data-name="Path 999" d="M988.153,1330.482l45.181-.623V1037.673l-45.181-1.083Z" transform="translate(-906.513 -1001.513)" fill="#f4f7fa"/>
            <path id="Path_1000" data-name="Path 1000" d="M800.842,1286.207l46.132-.636V957.411l-46.132-1.3Z" transform="translate(-800.842 -956.111)" fill="#f4f7fa"/>
          </g>
        </g>
        <path id="Path_1001" data-name="Path 1001" d="M2526.922,2110.124l189.547-7.909v-19.182l-189.547,7.384Z" transform="translate(-1773.543 -1591.86)" fill="#f4f7fa" style="mix-blend-mode: soft-light;isolation: isolate"/>
        <path id="Path_1002" data-name="Path 1002" d="M2526.922,1535.209l189.547-1.126V1514.9l-189.547.6Z" transform="translate(-1773.543 -1271.35)" fill="#f4f7fa" style="mix-blend-mode: soft-light;isolation: isolate"/>
        <path id="Path_1003" data-name="Path 1003" d="M2526.922,1458.582l189.547-.226v-19.182l-189.547-.3Z" transform="translate(-1773.543 -1228.46)" fill="#f4f7fa" style="mix-blend-mode: soft-light;isolation: isolate"/>
        <path id="Path_1004" data-name="Path 1004" d="M2526.922,2042.046l30.89-1.171v-30.226l-30.89,1.038Z" transform="translate(-1773.543 -1551.025)" fill="#f4f7fa" style="mix-blend-mode: soft-light;isolation: isolate"/>
        <g id="Group_558" data-name="Group 558" transform="translate(776.26 317.834)">
          <path id="Path_1005" data-name="Path 1005" d="M2579.418,1758.927c0,40.086,32.949,71.455,73.174,70.079,39.769-1.36,71.678-34.284,71.678-73.55s-31.91-70.661-71.678-70.115C2612.367,1685.893,2579.418,1718.841,2579.418,1758.927Z" transform="translate(-2579.418 -1685.334)" fill="#f4f7fa" style="mix-blend-mode: soft-light;isolation: isolate"/>
          <path id="Path_1006" data-name="Path 1006" d="M2589.089,1761.944c.911-28.869,19.933-53.517,46.084-63.046a69.506,69.506,0,0,1,22.843-4.21c37.525-.537,67.652,29.077,67.652,66.138s-30.127,68.118-67.652,69.38c-37.931,1.275-68.983-28.316-68.983-66.106C2589.034,1763.377,2589.066,1762.662,2589.089,1761.944Z" transform="translate(-2584.843 -1690.607)" fill="#fff" opacity="0.35" style="mix-blend-mode: soft-light;isolation: isolate"/>
          <path id="Path_1007" data-name="Path 1007" d="M2589.089,1761.944c.911-28.869,19.933-53.517,46.084-63.046a69.506,69.506,0,0,1,22.843-4.21c37.525-.537,67.652,29.077,67.652,66.138s-30.127,68.118-67.652,69.38c-37.931,1.275-68.983-28.316-68.983-66.106C2589.034,1763.377,2589.066,1762.662,2589.089,1761.944Z" transform="translate(-2584.843 -1690.607)" fill="#f4f7fa" style="mix-blend-mode: soft-light;isolation: isolate"/>
          <g id="Group_557" data-name="Group 557" transform="translate(4.246 8.291)">
            <path id="Path_1008" data-name="Path 1008" d="M2589.16,1767.4c.911-28.869,19.933-53.517,46.085-63.046l22.843,63.549Z" transform="translate(-2589.16 -1704.357)" fill="#fff"/>
          </g>
        </g>
        <g id="Group_559" data-name="Group 559" transform="translate(0 440.947)" style="mix-blend-mode: soft-light;isolation: isolate">
          <path id="Path_1009" data-name="Path 1009" d="M868.063,1992.85c16.112.607,18.505-8.721,34.368-9.625,26.905-1.532,33.495,24.653,59.42,24.254,21.163-.327,26.488-18.006,47.44-16.047,15.574,1.457,18.64,11.825,33.823,13.313a36.762,36.762,0,0,0,8.923-.245v61.466l-253.632,10.583V1967.8a91.587,91.587,0,0,1,30.628,7.171C846.131,1982.464,851.806,1992.238,868.063,1992.85Z" transform="translate(-798.405 -1967.798)" fill="#f4f7fa"/>
        </g>
        <path id="Path_1010" data-name="Path 1010" d="M2526.922,1156.388l189.547,1.012V991.1l-189.547-5.567Z" transform="translate(-1773.543 -972.708)" fill="#f4f7fa" style="mix-blend-mode: soft-light;isolation: isolate"/>
        <path id="Path_1011" data-name="Path 1011" d="M800.842,1807.823l716.93-16.012v-30.055l-716.93,13Z" transform="translate(-799.78 -1410.613)" fill="#f4f7fa" style="mix-blend-mode: soft-light;isolation: isolate"/>
        <path id="Path_1012" data-name="Path 1012" d="M1450.836,2002.4l433.628-18.093V1857.386l-433.628,10.39Z" transform="translate(-1166.472 -1464.563)" fill="#f4f7fa" style="mix-blend-mode: soft-light;isolation: isolate"/>
      </g>
    </g>
    <g id="Group_564" data-name="Group 564" transform="translate(633.404 474.199)">
      <path id="Path_1013" data-name="Path 1013" d="M1273.081,888.464l-364.033,5.166c-15.061.214-27.334-10.956-27.334-24.948V522.793c0-13.993,12.272-24.6,27.334-23.69l364.033,21.923a25.187,25.187,0,0,1,23.476,24.777V864.768A23.808,23.808,0,0,1,1273.081,888.464Z" transform="translate(-881.715 -499.049)" fill="url(#linear-gradient-2)"/>
      <g id="Group_563" data-name="Group 563" transform="translate(48.524 38.1)">
        <g id="Group_562" data-name="Group 562" transform="translate(0 107.31)" opacity="0.78" style="mix-blend-mode: soft-light;isolation: isolate">
          <path id="Path_1014" data-name="Path 1014" d="M1479.451,867.757l-37.556-1.033V832.67l37.556,1.285Z" transform="translate(-1246.263 -832.67)" fill="#fff"/>
          <path id="Path_1015" data-name="Path 1015" d="M1585.832,871.088l-36.872-1.014V836.332l36.872,1.261Z" transform="translate(-1306.663 -834.736)" fill="#fff"/>
          <path id="Path_1016" data-name="Path 1016" d="M1690.284,874.358l-36.207-1V839.928l36.207,1.238Z" transform="translate(-1365.964 -836.764)" fill="#fff"/>
          <path id="Path_1017" data-name="Path 1017" d="M1033.535,960.824l-40.49-.755V924.705l40.49,1.026Z" transform="translate(-993.046 -884.592)" fill="#fff"/>
          <path id="Path_1018" data-name="Path 1018" d="M1148.19,963.4l-39.725-.741V927.63l39.725,1.007Z" transform="translate(-1058.159 -886.242)" fill="#fff"/>
          <path id="Path_1019" data-name="Path 1019" d="M1260.687,965.923l-38.981-.727V930.5l38.981.988Z" transform="translate(-1122.044 -887.86)" fill="#fff"/>
          <path id="Path_1020" data-name="Path 1020" d="M1371.089,968.4l-38.259-.713V933.315l38.259.97Z" transform="translate(-1184.734 -889.449)" fill="#fff"/>
          <path id="Path_1021" data-name="Path 1021" d="M1479.451,970.833l-37.556-.7V936.079l37.556.952Z" transform="translate(-1246.263 -891.008)" fill="#fff"/>
          <path id="Path_1022" data-name="Path 1022" d="M1585.832,973.221l-36.872-.687V938.792l36.872.934Z" transform="translate(-1306.663 -892.539)" fill="#fff"/>
          <path id="Path_1023" data-name="Path 1023" d="M1690.284,975.565l-36.207-.675V941.456l36.207.917Z" transform="translate(-1365.964 -894.042)" fill="#fff"/>
          <path id="Path_1024" data-name="Path 1024" d="M1033.535,1067.853l-40.49-.4v-35.364l40.49.667Z" transform="translate(-993.046 -945.174)" fill="#fff"/>
          <path id="Path_1025" data-name="Path 1025" d="M1148.19,1069.41l-39.725-.388v-35.027l39.725.655Z" transform="translate(-1058.159 -946.247)" fill="#fff"/>
          <path id="Path_1026" data-name="Path 1026" d="M1260.687,1070.938l-38.981-.381v-34.7l38.981.642Z" transform="translate(-1122.044 -947.3)" fill="#fff"/>
          <path id="Path_1027" data-name="Path 1027" d="M1371.089,1072.438l-38.259-.374v-34.372l38.259.63Z" transform="translate(-1184.734 -948.332)" fill="#fff"/>
          <path id="Path_1028" data-name="Path 1028" d="M1479.451,1073.91l-37.556-.367v-34.054l37.556.619Z" transform="translate(-1246.263 -949.346)" fill="#fff"/>
          <path id="Path_1029" data-name="Path 1029" d="M1585.832,1075.355l-36.872-.361v-33.741l36.872.608Z" transform="translate(-1306.663 -950.342)" fill="#fff"/>
          <path id="Path_1030" data-name="Path 1030" d="M1690.284,1076.773l-36.207-.354v-33.434l36.207.6Z" transform="translate(-1365.964 -951.319)" fill="#fff"/>
          <path id="Path_1031" data-name="Path 1031" d="M1033.535,1174.882l-40.49-.037v-35.364l40.49.308Z" transform="translate(-993.046 -1005.756)" fill="#fff"/>
          <path id="Path_1032" data-name="Path 1032" d="M1148.19,1175.423l-39.725-.036v-35.027l39.725.3Z" transform="translate(-1058.159 -1006.252)" fill="#fff"/>
          <path id="Path_1033" data-name="Path 1033" d="M1260.687,1175.954l-38.981-.036v-34.7l38.981.3Z" transform="translate(-1122.044 -1006.739)" fill="#fff"/>
          <path id="Path_1034" data-name="Path 1034" d="M1371.089,1176.475l-38.259-.035v-34.372l38.259.291Z" transform="translate(-1184.734 -1007.216)" fill="#fff"/>
          <path id="Path_1035" data-name="Path 1035" d="M1479.451,1176.986l-37.556-.034V1142.9l37.556.286Z" transform="translate(-1246.263 -1007.684)" fill="#fff"/>
          <path id="Path_1036" data-name="Path 1036" d="M1585.832,1177.488l-36.872-.034v-33.741l36.872.281Z" transform="translate(-1306.663 -1008.144)" fill="#fff"/>
          <path id="Path_1037" data-name="Path 1037" d="M1690.284,1177.981l-36.207-.033v-33.434l36.207.276Z" transform="translate(-1365.964 -1008.596)" fill="#fff"/>
          <path id="Path_1038" data-name="Path 1038" d="M1033.535,1281.844l-40.49.322V1246.8l40.49-.051Z" transform="translate(-993.046 -1066.273)" fill="#fff"/>
          <path id="Path_1039" data-name="Path 1039" d="M1148.19,1281.371l-39.725.316v-35.027l39.725-.05Z" transform="translate(-1058.159 -1066.193)" fill="#fff"/>
          <path id="Path_1040" data-name="Path 1040" d="M1260.687,1280.906l-38.981.31v-34.7l38.981-.049Z" transform="translate(-1122.044 -1066.114)" fill="#fff"/>
          <path id="Path_1041" data-name="Path 1041" d="M1371.089,1280.449l-38.259.3v-34.372l38.259-.048Z" transform="translate(-1184.734 -1066.037)" fill="#fff"/>
          <path id="Path_1042" data-name="Path 1042" d="M1479.451,1280l-37.556.3v-34.053l37.556-.047Z" transform="translate(-1246.263 -1065.962)" fill="#fff"/>
          <path id="Path_1043" data-name="Path 1043" d="M1585.832,1279.562l-36.872.293v-33.741l36.872-.046Z" transform="translate(-1306.663 -1065.887)" fill="#fff"/>
        </g>
        <path id="Path_1044" data-name="Path 1044" d="M1408.285,639.817,1154.21,628.135V586.463l254.075,13.714Z" transform="translate(-1083.966 -586.463)" fill="#fff"/>
        <path id="Path_1045" data-name="Path 1045" d="M1408.285,726.691,1154.21,716.17V700.291l254.075,11.295Z" transform="translate(-1083.966 -650.679)" fill="#fff" opacity="0.78" style="mix-blend-mode: soft-light;isolation: isolate"/>
        <path id="Path_1046" data-name="Path 1046" d="M1479.451,1073.91l-37.556-.367v-34.054l37.556.619Z" transform="translate(-1246.263 -842.036)" fill="#fff"/>
      </g>
    </g>
    <g id="Group_565" data-name="Group 565" transform="translate(558.665 975.202)" opacity="0.79">
      <path id="Path_1047" data-name="Path 1047" d="M741.211,2034.011c-17.048,1.027-30.973-11.791-30.973-28.578v-319.8c0-16.786,13.925-30.6,30.973-30.79l564.765-6.312c14.584-.163,26.405,12.267,26.405,27.707v294.152c0,15.44-11.821,28.714-26.405,29.593Z" transform="translate(-710.238 -1648.526)" fill="url(#linear-gradient-3)"/>
      <path id="Path_1048" data-name="Path 1048" d="M1319.845,1669.432l-564.765,7.031a20.722,20.722,0,0,0-20.257,20.8v319.362a19.026,19.026,0,0,0,20.257,19.351l564.765-33.313c9.573-.564,17.316-9.5,17.316-19.969V1688.165C1337.161,1677.7,1329.419,1669.313,1319.845,1669.432Z" transform="translate(-724.108 -1660.32)" fill="url(#linear-gradient-4)"/>
      <path id="Path_1049" data-name="Path 1049" d="M939.365,2298.5l-42.313,2.226v-67.978l42.313-1.851Z" transform="translate(-815.629 -1977.068)" fill="#fff"/>
      <path id="Path_1050" data-name="Path 1050" d="M1099.8,2262.36l-41.544,2.185v-89.534l41.544-1.7Z" transform="translate(-906.574 -1944.584)" fill="#fff"/>
      <path id="Path_1051" data-name="Path 1051" d="M1257.34,2217.557l-40.8,2.146V2101.768l40.8-1.507Z" transform="translate(-995.869 -1903.371)" fill="#fff"/>
      <path id="Path_1052" data-name="Path 1052" d="M1412.049,2161.284l-40.067,2.107V2008.033l40.067-1.274Z" transform="translate(-1083.559 -1850.622)" fill="#fff"/>
      <path id="Path_1053" data-name="Path 1053" d="M887.518,1926.615a7.69,7.69,0,0,1-2.855-.436,6.471,6.471,0,0,1-3.924-8.821c1.808-4.045,6.18-4.707,8.527-5.063,1.775-.269,4.185-.544,7.234-.891,99.762-11.379,170.616-50.908,212.188-117.152a7.186,7.186,0,0,1,9.518-2.406,6.4,6.4,0,0,1,2.317,9.063c-28.088,44.855-69.172,78.519-122.517,100.026-43.21,17.422-83.093,22.043-100.251,24.03-2.846.33-5.777.669-7.138.9A8.008,8.008,0,0,1,887.518,1926.615Zm6.729-4.326h0Zm.007-.015,0,0Zm.007-.016,0,.006Zm.007-.015,0,.008Zm.007-.016,0,.009Zm.008-.016,0,.011Zm.009-.019-.007.015A.1.1,0,0,1,894.292,1922.191Z" transform="translate(-806.098 -1728.873)" fill="#fff"/>
      <path id="Path_1054" data-name="Path 1054" d="M1370.326,1809.633a6.6,6.6,0,0,1-6.9-6.033l-1.97-28.991-28.947,19.131a7.144,7.144,0,0,1-9.7-1.616,6.542,6.542,0,0,1,1.924-9.294l48.974-32.261,3.518,51.843a6.927,6.927,0,0,1-6.444,7.2C1370.629,1809.621,1370.476,1809.629,1370.326,1809.633Z" transform="translate(-1055.15 -1706.093)" fill="#fff"/>
      <path id="Path_1055" data-name="Path 1055" d="M1583.61,1812.605a10.321,10.321,0,0,1-10.205,10.1,9.8,9.8,0,0,1-10.233-9.668,10.32,10.32,0,0,1,10.233-10.1A9.8,9.8,0,0,1,1583.61,1812.605Z" transform="translate(-1191.418 -1735.635)" fill="#fff" opacity="0.68"/>
      <path id="Path_1056" data-name="Path 1056" d="M1819.313,1809.55l-173.976,4.229v-43.92l173.976-3.189Z" transform="translate(-1237.771 -1715.177)" fill="#fff" opacity="0.68"/>
      <path id="Path_1057" data-name="Path 1057" d="M1583.61,1950.3a10.424,10.424,0,0,1-10.205,10.188,9.708,9.708,0,0,1-10.233-9.585,10.424,10.424,0,0,1,10.233-10.188A9.708,9.708,0,0,1,1583.61,1950.3Z" transform="translate(-1191.418 -1813.363)" fill="#fff" opacity="0.68"/>
      <path id="Path_1058" data-name="Path 1058" d="M1819.313,1943.607l-173.976,5.646v-43.92l173.976-4.606Z" transform="translate(-1237.771 -1790.804)" fill="#fff" opacity="0.68"/>
      <path id="Path_1059" data-name="Path 1059" d="M1583.61,2225.7a10.634,10.634,0,0,1-10.205,10.354,9.523,9.523,0,0,1-10.233-9.419,10.634,10.634,0,0,1,10.233-10.355A9.523,9.523,0,0,1,1583.61,2225.7Z" transform="translate(-1191.418 -1968.817)" fill="#fff" opacity="0.68"/>
      <path id="Path_1060" data-name="Path 1060" d="M1819.313,2214.875l-173.976,8.219v-21.96l173.976-7.7Z" transform="translate(-1237.771 -1955.935)" fill="#fff" opacity="0.68"/>
      <path id="Path_1061" data-name="Path 1061" d="M1583.61,2316.221a10.7,10.7,0,0,1-10.205,10.408,9.463,9.463,0,0,1-10.233-9.364,10.7,10.7,0,0,1,10.233-10.41A9.463,9.463,0,0,1,1583.61,2316.221Z" transform="translate(-1191.418 -2019.913)" fill="#fff" opacity="0.68"/>
      <path id="Path_1062" data-name="Path 1062" d="M1819.313,2303l-173.976,9.151v-21.96l173.976-8.631Z" transform="translate(-1237.771 -2005.653)" fill="#fff" opacity="0.68"/>
    </g>
    <g id="Group_567" data-name="Group 567" transform="translate(1148.558 548.274)" opacity="0.78">
      <path id="Path_1063" data-name="Path 1063" d="M2494.417,915.9H2073.861c-5.629,0-10.2-4.191-10.2-9.361V677.893c0-5.17,4.572-9.145,10.2-8.878l420.556,19.91a9.088,9.088,0,0,1,8.589,8.981v209.42A8.579,8.579,0,0,1,2494.417,915.9Z" transform="translate(-2063.661 -669.003)" fill="url(#linear-gradient-5)"/>
      <path id="Path_1064" data-name="Path 1064" d="M2494.417,1186.91H2073.861c-5.629,0-10.2-4.191-10.2-9.361v-28.157l439.346,3.155v25.789A8.579,8.579,0,0,1,2494.417,1186.91Z" transform="translate(-2063.661 -940.013)" fill="url(#linear-gradient-6)"/>
      <g id="Group_566" data-name="Group 566" transform="translate(186.987 73.097)">
        <path id="Path_1065" data-name="Path 1065" d="M2576.624,878.06c0,22.021-18.549,39.525-41.622,39.094-23.289-.435-42.327-18.945-42.327-41.339S2511.713,835.93,2535,836.74C2558.075,837.543,2576.624,856.039,2576.624,878.06Z" transform="translate(-2492.675 -836.713)" fill="url(#linear-gradient-7)"/>
        <path id="Path_1066" data-name="Path 1066" d="M2551.916,921.148V874.515l48.369,24.61Z" transform="translate(-2526.096 -858.039)" fill="#fff" opacity="0.68"/>
      </g>
      <path id="Path_1067" data-name="Path 1067" d="M2507.51,1194.564l-421.008-1.207v-6.035l421.008,1.694Z" transform="translate(-2076.547 -961.411)" fill="#fff" opacity="0.68"/>
      <path id="Path_1068" data-name="Path 1068" d="M2199.122,1193.68l-112.619-.323v-6.035l112.619.453Z" transform="translate(-2076.547 -961.411)" fill="url(#linear-gradient-8)"/>
      <path id="Path_1069" data-name="Path 1069" d="M2328.541,1183.644c0,4.888-4.226,8.844-9.448,8.835s-9.483-3.994-9.483-8.9,4.25-8.862,9.483-8.835S2328.541,1178.755,2328.541,1183.644Z" transform="translate(-2202.412 -954.315)" fill="#fff"/>
    </g>
    <g id="Group_578" data-name="Group 578" transform="translate(973.825 1133.005)">
      <g id="Group_569" data-name="Group 569" transform="translate(0 153.885)">
        <path id="Path_1070" data-name="Path 1070" d="M2088.912,2626.056a1.829,1.829,0,0,1-1.82-1.661l-23.425-253.148a1.829,1.829,0,1,1,3.642-.336l19.776,213.7V2365.476a1.829,1.829,0,0,1,3.658,0v258.751a1.829,1.829,0,0,1-1.745,1.827C2088.969,2626.056,2088.94,2626.056,2088.912,2626.056Z" transform="translate(-1888.926 -2363.647)" fill="#b7c0ce"/>
        <g id="Group_568" data-name="Group 568" transform="translate(0 1.364)">
          <path id="Path_1071" data-name="Path 1071" d="M2123.949,2394.931l-256.977-28.156-204.212,22.44,258.567,30.962Z" transform="translate(-1662.761 -2366.776)" fill="#f4f7fa" opacity="0.81"/>
          <path id="Path_1072" data-name="Path 1072" d="M1921.327,2449.224l202.622-25.248v12.195l-202.622,25.248-258.567-30.963v-12.195Z" transform="translate(-1662.761 -2395.821)" fill="#b7c0ce"/>
        </g>
        <path id="Path_1073" data-name="Path 1073" d="M1666.872,2707.1c-.024,0-.048,0-.072,0a1.828,1.828,0,0,1-1.757-1.827V2442.331a1.829,1.829,0,0,1,3.658,0v216.282l16.993-216.425a1.829,1.829,0,0,1,3.647.286l-20.646,262.938A1.829,1.829,0,0,1,1666.872,2707.1Z" transform="translate(-1664.048 -2407.004)" fill="#b7c0ce"/>
        <path id="Path_1074" data-name="Path 1074" d="M2684.562,2707.091a1.828,1.828,0,0,1-1.822-1.677l-21.922-262.937a1.828,1.828,0,0,1,1.671-1.973,1.806,1.806,0,0,1,1.974,1.67l18.271,219.141v-212.6a1.829,1.829,0,1,1,3.658,0v256.551a1.829,1.829,0,0,1-1.753,1.827Z" transform="translate(-2225.809 -2406.999)" fill="#b7c0ce"/>
      </g>
      <g id="Group_575" data-name="Group 575" transform="translate(186.924 0)">
        <g id="Group_572" data-name="Group 572" transform="translate(0 89.062)">
          <g id="Group_571" data-name="Group 571">
            <path id="Path_1075" data-name="Path 1075" d="M2295.954,2414.225l-199.744-1.486v4.4a2.417,2.417,0,0,0,2.051,2.389l56.482,8.66a9.063,9.063,0,0,0,2.026.081l137.014-9.874a2.338,2.338,0,0,0,2.171-2.333Z" transform="translate(-2094.214 -2326.519)" fill="#26264f"/>
            <g id="Group_570" data-name="Group 570">
              <path id="Path_1076" data-name="Path 1076" d="M2220.884,2295.357l-125.192,8.045a3.6,3.6,0,0,1-4.062-3.417V2218.6a3.886,3.886,0,0,1,4.062-3.678h125.192a3.33,3.33,0,0,1,3.338,3.325v73.572A3.6,3.6,0,0,1,2220.884,2295.357Z" transform="translate(-2091.63 -2214.921)" fill="#26264f"/>
              <path id="Path_1077" data-name="Path 1077" d="M2225.464,2295.357l-125.192,8.045a3.6,3.6,0,0,1-4.062-3.417V2218.6a3.886,3.886,0,0,1,4.062-3.678h125.192a3.33,3.33,0,0,1,3.338,3.325v73.572A3.6,3.6,0,0,1,2225.464,2295.357Z" transform="translate(-2094.214 -2214.921)" fill="#26264f"/>
              <path id="Path_1078" data-name="Path 1078" d="M2228.612,2296.287l-116.6,6.988a2.948,2.948,0,0,1-3.3-2.8v-71.254a3.18,3.18,0,0,1,3.3-3.015l116.6-.439a2.731,2.731,0,0,1,2.754,2.724v64.9A2.953,2.953,0,0,1,2228.612,2296.287Z" transform="translate(-2101.262 -2221.037)" fill="url(#linear-gradient-9)"/>
              <path id="Path_1079" data-name="Path 1079" d="M2255.559,2218.258a1.444,1.444,0,1,1-1.44-1.369A1.41,1.41,0,0,1,2255.559,2218.258Z" transform="translate(-2182.483 -2216.031)" fill="#fff"/>
              <path id="Path_1080" data-name="Path 1080" d="M2195.808,2273.076c-9.7-4.726-17.328,1.262-24.689-4.646-4.463-3.582-2.272-6.252-7.763-11.6-6.082-5.928-10.042-3.936-16.155-9.271-7.729-6.747-3.863-12-10.521-16.839-8.076-5.876-16.786-.437-24.475-6.073a16.692,16.692,0,0,1-6.085-9.722H2098.6a2.284,2.284,0,0,0-2.388,2.161V2301.5a2.116,2.116,0,0,0,2.388,2.007l128.245-8.242a2.106,2.106,0,0,0,1.546-.855c-9.388-.31-15.156-3.159-18.843-6.1C2202.334,2282.546,2203.585,2276.864,2195.808,2273.076Z" transform="translate(-2094.214 -2214.921)" fill="#fff" opacity="0.48" style="mix-blend-mode: soft-light;isolation: isolate"/>
            </g>
            <path id="Path_1081" data-name="Path 1081" d="M2230.454,2398.924l-134.244,8.469,58.533,8.975a9.048,9.048,0,0,0,2.026.081l139.185-10.03-63.365-7.437A11.89,11.89,0,0,0,2230.454,2398.924Z" transform="translate(-2094.214 -2318.712)" fill="#26264f"/>
            <path id="Path_1082" data-name="Path 1082" d="M2141.152,2409.29l111.762-7.156,34.589,4.027-110.8,7.649Z" transform="translate(-2119.568 -2320.537)" fill="#d8dee8" opacity="0.47"/>
          </g>
        </g>
        <path id="Path_1083" data-name="Path 1083" d="M2423.977,3003.6s-29.363,2.04-29.794,3.958,19.93,9.329,27.044,9.6,12.967-1.826,12.323-4.839-3.134-10.593-3.134-10.593Z" transform="translate(-2262.311 -2569.735)" fill="url(#linear-gradient-10)"/>
        <path id="Path_1084" data-name="Path 1084" d="M2458.693,2976.088l-.521,13.858s4.467,2.521,8.012,1.073l3.943-14.613Z" transform="translate(-2298.414 -2555.269)" fill="url(#linear-gradient-11)"/>
        <path id="Path_1085" data-name="Path 1085" d="M2235.571,2990.78s-29.363,2.04-29.794,3.958,19.93,9.329,27.045,9.6,12.967-1.826,12.323-4.839-3.134-10.593-3.134-10.593Z" transform="translate(-2156.021 -2562.502)" fill="url(#linear-gradient-12)"/>
        <path id="Path_1086" data-name="Path 1086" d="M2270.287,2963.268l-.521,13.857s4.467,2.521,8.012,1.073l3.942-14.613Z" transform="translate(-2192.125 -2548.037)" fill="url(#linear-gradient-13)"/>
        <path id="Path_1087" data-name="Path 1087" d="M2440.815,2736.7l16.459,1.829c7.41-8.213,18.472-22.535,24.384-42.672,11.4-38.823-5.108-66.8,5.487-73.764,15-9.855,47.5,46.883,99.674,45.426,21.406-.6,49.347-11.082,60.086-33.914,1.622-3.447,9.584-21.491,1.829-38.406-8.006-17.465-47.727-25.064-126.841-39.554-33.959-6.219-51.107-9.321-58-6.031C2415.066,2572.928,2435.428,2704.734,2440.815,2736.7Z" transform="translate(-2283.655 -2313.926)" fill="url(#linear-gradient-14)"/>
        <path id="Path_1088" data-name="Path 1088" d="M2260,2756.33l17.025,2.962c6.893-10.153,17.326-26.061,28.991-46.246,24.319-42.077,23.874-50.624,35.113-56.041,23.787-11.462,41.758,19.5,100.586,28.044,19.244,2.793,61.964,9,79.25-14.022,7.007-9.332,11.032-25.059,5.486-38.406-9.942-23.927-42.69-21.053-150.573-42.063-42.072-8.194-47.808-9.655-58-6.031C2260.965,2604.767,2259.856,2728.689,2260,2756.33Z" transform="translate(-2186.611 -2333.318)" fill="url(#linear-gradient-15)"/>
        <path id="Path_1089" data-name="Path 1089" d="M2527.075,2174.838c5.6-13.7,17.623-21.573,23.856-25.657a51.906,51.906,0,0,1,8.928-4.772c22.576-9.218,45.115-8.583,49.136-8.282,9.75.73,33.831,2.533,51.673,17.992,8.635,7.483,15.539,17.929,25.6,76.811,14.037,82.119,2.644,73.7,13.716,106.986,5.859,17.613,14.987,37.822,5.333,50.727-3.119,4.168-7.573,5.365-16.655,9.451-33.923,15.265-64.339,12.634-82.821,10.8-20.338-2.015-30.617-3.167-36.009-10.354-8.614-11.479.253-26.066,1.8-51.312,1.111-18.126-3.01-32.49-11.253-61.216C2541.222,2219.234,2516.344,2201.076,2527.075,2174.838Z" transform="translate(-2335.824 -2081.329)" fill="url(#linear-gradient-16)"/>
        <path id="Path_1090" data-name="Path 1090" d="M2252.686,2407.036l-21.677-4.169a13.159,13.159,0,0,0-4.719-.046l-18.75,3.224s12.192,4.9,22.556,3.366,21.685,4.293,21.685,4.293Z" transform="translate(-2157.02 -2231.755)" fill="url(#linear-gradient-17)"/>
        <g id="Group_574" data-name="Group 574" transform="translate(225.544)">
          <g id="Group_573" data-name="Group 573">
            <path id="Path_1091" data-name="Path 1091" d="M2622.764,2061.348c-3.645-5.508,1.812-16.1,3.97-20.3.075-.145.17-.334.373-.709,3.315-6.117,4.165-6.953,5.747-8.012l2.2-1.357s.127-.05.261-.1a25.419,25.419,0,0,1,7.2-.439c3.112.664,6.427,13.344,5.481,31.272q.194,1.026.374,2.068.736,4.246,1.181,8.319c.288,2.6,3.968,2.536,6.574,2.37,10.577-.675,15.754.225,16.2,1.8.843,2.952-11.7,12.6-27.2,14.773-20.792.155-37.705-2.059-35.887-5.333.807-1.454,16.917-5.663,21.447-9.835,4.148-3.821,3.81-7.764,4.151-10.587C2632.7,2065.4,2625.544,2065.548,2622.764,2061.348Z" transform="translate(-2609.107 -2021.73)" fill="url(#linear-gradient-18)"/>
            <path id="Path_1092" data-name="Path 1092" d="M2648.991,2014.732c-1.709,3.771,2.438,11.341,3.969,12.44a9.221,9.221,0,0,1,2.011,2.2,2.828,2.828,0,0,1,.317.657c1.217,3.5-4.349,7.619-3.275,9.185.779,1.138,4.562-.382,5.011.6.424.925-2.72,2.838-2.238,3.943.363.836,2.3.072,3.517,1.352a4.673,4.673,0,0,1,1.074,3.092c.151,4.976-11.133,22.946-13.483,31.055-2.493,8.6,1.967,16.785,18.166,39.4,23.042,32.172,34.564,48.259,40.969,52.858,31.305,22.472,68.117,19.719,83.212,17.373,18.135-2.816,55.6-8.637,67.667-37.49,13.869-33.167-13.437-78.554-41.453-86.26-12.812-3.523-19.634,1.829-36.272-3.961-18.376-6.4-16.15-17.7-33.163-24.38-22.691-8.907-37.333,7.015-52.792-4.578-8.412-6.31-7.025-13.236-17.374-18.288C2664.645,2008.941,2651.231,2009.791,2648.991,2014.732Z" transform="translate(-2629.496 -2010.581)" fill="#26264f"/>
            <path id="Path_1093" data-name="Path 1093" d="M2662.688,2072.26c1.362-1.87,3.753-.113,3.768,2.308s-2.331,4.936-4.606,4.458S2660.855,2074.778,2662.688,2072.26Z" transform="translate(-2638.174 -2044.934)" fill="url(#linear-gradient-19)"/>
          </g>
        </g>
        <path id="Path_1094" data-name="Path 1094" d="M2643.406,2464.824c-5.983-11.914,8.678-27.75-.9-45.912-8.135-15.425-22.913-11.97-29.708-26.107-8.207-17.076,9.642-29.837,9-55.814-.764-31.055-27.485-62.142-43.211-59.416-10.175,1.764-11.482,16.943-18.641,33.561a377.3,377.3,0,0,1,20.441,54.662c8.242,28.727,12.364,43.09,11.253,61.216-1.547,25.247-10.415,39.835-1.8,51.313,5.393,7.186,15.672,8.339,36.01,10.353,18.482,1.83,48.9,4.461,82.821-10.8,4.294-1.932,7.509-3.379,10.131-4.807C2665.8,2481.03,2648.152,2474.274,2643.406,2464.824Z" transform="translate(-2355.831 -2161.111)" opacity="0.3" fill="url(#linear-gradient-20)" style="mix-blend-mode: multiply;isolation: isolate"/>
        <path id="Path_1095" data-name="Path 1095" d="M2298.454,2280.547l1.844-8.3c41.646,7.465,59.857-.914,68.654-10.707,8.075-8.987,4.632-13.63,17.554-47.937,12.309-32.676,26.274-41.073,33.309-44.111,3.929-1.7,6.642-2.822,9.9-2.025,15,3.667,19.964,42.765,15.754,72.019-2.372,16.481-7.022,48.8-33.534,64.142-.488.282-1.259.728-2.278,1.273-3.338,1.786-16.6,8.166-42.734,3.453C2336.118,2302.8,2306.062,2285.141,2298.454,2280.547Z" transform="translate(-2208.309 -2098.941)" fill="url(#linear-gradient-21)"/>
      </g>
      <g id="Group_577" data-name="Group 577" transform="translate(368.408 179.016)">
        <ellipse id="Ellipse_1" data-name="Ellipse 1" cx="90.99" cy="37.135" rx="90.99" ry="37.135" transform="translate(23.524 288.333)" fill="#b7c0ce"/>
        <path id="Path_1096" data-name="Path 1096" d="M2743.969,3091.993c0,19.36-40.737,35.055-90.99,35.055s-90.99-15.695-90.99-35.055,40.738-51.038,90.99-51.038S2743.969,3072.633,2743.969,3091.993Z" transform="translate(-2538.465 -2770.879)" fill="#fff"/>
        <path id="Path_1097" data-name="Path 1097" d="M2781.595,3091.993c0-19.36-40.737-51.038-90.99-51.038a123.465,123.465,0,0,0-60.438,15.936,13.212,13.212,0,0,0-1.436,6.925c1.044,10.892,18.81,17.589,29.007,19.8,25.679,5.562,38.22-9.794,59.393-9.209,13.091.362,31.231,6.938,52.747,34.789C2777.325,3104.112,2781.595,3098.246,2781.595,3091.993Z" transform="translate(-2576.091 -2770.879)" opacity="0.3" fill="url(#linear-gradient-22)" style="mix-blend-mode: multiply;isolation: isolate"/>
        <path id="Path_1098" data-name="Path 1098" d="M2762.641,2940.292a20.616,20.616,0,0,1-10.219.058,6.576,6.576,0,0,1-4.882-6.4v-102.6h20.233V2933.83A6.7,6.7,0,0,1,2762.641,2940.292Z" transform="translate(-2643.144 -2652.633)" fill="#fff"/>
        <path id="Path_1099" data-name="Path 1099" d="M2762.641,2940.292a20.616,20.616,0,0,1-10.219.058,6.576,6.576,0,0,1-4.882-6.4v-102.6h20.233V2933.83A6.7,6.7,0,0,1,2762.641,2940.292Z" transform="translate(-2643.144 -2652.633)" opacity="0.65" fill="url(#linear-gradient-23)" style="mix-blend-mode: multiply;isolation: isolate"/>
        <g id="Group_576" data-name="Group 576">
          <path id="Path_1100" data-name="Path 1100" d="M2515.623,2556.846l30.909-19.54c1.286-7.3,15.855-83.657,75.005-107.635,24.054-9.751,49.94-8.594,64.146-7.959,28.359,1.267,48.587,2.17,58.316,15.7,12.493,17.37-8.46,33.122-4.122,82.809,1.769,20.262,6.269,29.261.664,42.684-6.713,16.08-22.282,24.992-34.388,30.009a176.152,176.152,0,0,1-72.941,23.293c-56.052,4.913-97.9-19.132-112.289-28.332a18.524,18.524,0,0,1-12.568-13.909A16.333,16.333,0,0,1,2515.623,2556.846Z" transform="translate(-2508.017 -2421.307)" fill="url(#linear-gradient-24)"/>
        </g>
        <path id="Path_1101" data-name="Path 1101" d="M2558.007,2584.122c1.142-6.871,20.292-1.176,38.406-14.631,27.077-20.114,13.023-54.184,36.577-86.87,21.615-30,65.131-45.262,78.64-33.833,17.981,15.213-26.027,72.1,0,108.816,12.643,17.833,31.9,16.974,32,27.433.157,16.527-47.783,35.582-93.271,34.747C2601.461,2618.887,2556.194,2595.027,2558.007,2584.122Z" transform="translate(-2536.189 -2434.669)" fill="#fff" opacity="0.26" style="mix-blend-mode: soft-light;isolation: isolate"/>
      </g>
      <path id="Path_1102" data-name="Path 1102" d="M2257.645,2794.812c-.024,0-.048,0-.073,0a1.828,1.828,0,0,1-1.757-1.827V2508.106a1.829,1.829,0,0,1,3.658,0v238.031l18.624-238.173a1.829,1.829,0,1,1,3.647.286l-22.276,284.876A1.828,1.828,0,0,1,2257.645,2794.812Z" transform="translate(-1997.33 -2290.227)" fill="#b7c0ce"/>
    </g>
    <g id="Group_582" data-name="Group 582" transform="translate(881.911 686.366)">
      <g id="Group_581" data-name="Group 581" transform="translate(0 0)">
        <circle id="Ellipse_2" data-name="Ellipse 2" cx="157.75" cy="157.75" r="157.75" transform="translate(0 223.092) rotate(-45)" fill="url(#linear-gradient-25)"/>
        <g id="Group_580" data-name="Group 580" transform="translate(77.241 53.443)">
          <circle id="Ellipse_3" data-name="Ellipse 3" cx="157.75" cy="157.75" r="157.75" fill="url(#linear-gradient-26)"/>
          <path id="Path_1103" data-name="Path 1103" d="M1947.8,1280.282a146.87,146.87,0,1,1-146.871-146.871c1.359,0,2.7.014,4.046.057A146.869,146.869,0,0,1,1947.8,1280.282Z" transform="translate(-1643.177 -1122.532)" fill="url(#linear-gradient-9)"/>
          <g id="Group_579" data-name="Group 579" transform="translate(25.849 90.259)">
            <path id="Path_1104" data-name="Path 1104" d="M1820.3,1315.537l-131.9,40.205,131.9,40.2,131.9-40.2Z" transform="translate(-1688.401 -1315.537)" fill="#fff"/>
            <path id="Path_1105" data-name="Path 1105" d="M1883.579,1499.611l-83.015-25.3v57.805a20.1,20.1,0,0,0,15.916,19.661c44.582,9.452,87.449,9.746,128.5.309a20.052,20.052,0,0,0,15.5-19.566v-56.345Z" transform="translate(-1751.677 -1405.107)" fill="#fff"/>
            <path id="Path_1106" data-name="Path 1106" d="M1731.3,1506.229q-10.818,4.805-18.92.2a4.233,4.233,0,0,1-2.007-4.524l11.74-58.372,11.651,57.93A4.291,4.291,0,0,1,1731.3,1506.229Z" transform="translate(-1700.747 -1387.747)" fill="#fff"/>
            <path id="Path_1107" data-name="Path 1107" d="M1845.744,1394.117,1733.5,1406.044v19.471h3.327l.341-17.064Z" transform="translate(-1713.842 -1359.867)" fill="#fff"/>
          </g>
          <path id="Path_1108" data-name="Path 1108" d="M2036.122,1280.356a146.875,146.875,0,0,1-225.5,124.052c13.811-37.572,53.741-77.9,95.073-103.179,76.517-46.779,18.372-131.3-12.395-167.687A146.869,146.869,0,0,1,2036.122,1280.356Z" transform="translate(-1731.502 -1122.606)" fill="#fff" opacity="0.6" style="mix-blend-mode: soft-light;isolation: isolate"/>
        </g>
      </g>
    </g>
  </g>
</svg>
