<svg xmlns="http://www.w3.org/2000/svg" width="2769.102" height="1672.015" viewBox="0 0 2769.102 1672.015">
  <g id="Group_278" data-name="Group 278" transform="translate(-127.98 -141.217)">
    <g id="Group_91" data-name="Group 91">
      <path id="Path_41" data-name="Path 41" d="M2741.845,1808.624c-155.594,0-2422.162.547-2423.472-3.436l-.222-.5a2.68,2.68,0,0,1-.221-.739c-.867-1.992-470.767-393.971,70.8-783.511,211.9-152.418,5.444-282.667,173.946-452.345C756.331,373.1,1070.5,450.85,1285.839,362.431c38.048-15.607,76.226-40.729,114.444-79.279a423.438,423.438,0,0,1,70.331-57q5.8-3.78,11.729-7.37a472.012,472.012,0,0,1,46.925-24.864q16.262-7.488,33.14-13.85h.01a552,552,0,0,1,54.925-17.459,634.854,634.854,0,0,1,81.918-15.689q18.273-2.32,36.839-3.668c240.606-17.658,511.381,81.669,651.117,226.846,28.132,29.235,156.06,180.5,55.218,388.408-63.67,131.269,203.061,256.641,297.841,406.538C2981.255,1546.148,2744.031,1803.656,2741.845,1808.624Z" fill="#ebf3fa"/>
    </g>
    <g id="Group_92" data-name="Group 92">
      <path id="Path_42" data-name="Path 42" d="M1176.039,662.455s67.509,129.08,42.715,140.157S1153.9,653.356,1153.9,653.356s-145.926-22.431-194.394-2.377c0,0,119.69,109.655,92.932,114.289S895.832,661.58,895.832,661.58,757.976,677.184,760.6,760.9,808.838,872.959,829.643,871.9,974,831.426,975.691,848.518s-74.228,68.4-125.366,68.138c0,0,90.339,111.558,156.037,84.493s73.876-75.334,114.78-91.32,74.95-14.039,57.444,3.62-90.7,31.681-115.767,70.753-47.052,65.14,19.705,58.88S1259.6,994.4,1267.421,939.2c.341-2.407.667-4.7.979-6.9a26.707,26.707,0,0,1-.979,6.9c13.652,3.229,40.859,30.174,60.461,51.237,3,3.685,7.5,8.682,13.948,15.36h0c2.727,3.076,4.929,5.6,6.456,7.369,39.035,48.666,56.465,147.933,56.465,147.933l14.522-.486c.352-105.506-75.967-168.833-75.967-168.833-52.979-52.519-68.061-107.784-68.061-107.784s100.205-104.485,15.834-179.128C1291.08,704.863,1228.788,662.225,1176.039,662.455Z" fill="#dfebfd"/>
    </g>
    <g id="Group_93" data-name="Group 93">
      <path id="Path_43" data-name="Path 43" d="M1825.6,372.347s-67.509,129.08-42.715,140.158,64.854-149.256,64.854-149.256,145.927-22.431,194.395-2.378c0,0-119.691,109.655-92.933,114.289S2105.8,371.473,2105.8,371.473s137.855,15.6,135.232,99.314-48.238,112.065-69.043,111.006-144.361-40.475-146.049-23.382,74.229,68.4,125.367,68.137c0,0-90.339,111.558-156.038,84.494s-73.876-75.334-114.78-91.321-74.95-14.039-57.443,3.621,90.7,31.681,115.766,70.752,47.052,65.139-19.7,58.88-177.072-48.683-184.9-103.887c-.341-2.406-.666-4.7-.979-6.9a26.706,26.706,0,0,0,.979,6.9c-13.651,3.229-40.859,30.174-60.46,51.237-3,3.686-7.5,8.682-13.948,15.36h0c-2.728,3.076-4.93,5.6-6.457,7.369-39.035,48.665-56.466,147.932-56.466,147.932l-14.521-.485c-.352-105.507,75.966-168.834,75.966-168.834,52.98-52.519,68.062-107.784,68.062-107.784S1626.185,489.4,1710.557,414.755C1710.557,414.755,1772.849,372.117,1825.6,372.347Z" fill="#dfebfd"/>
    </g>
    <g id="Group_94" data-name="Group 94">
      <path id="Path_44" data-name="Path 44" d="M1316.335,695.76s-17.116-201.271-168.749-245.553c0,0-29.571-8.154-44.505,23.526s44.911,40.778,79.953,59.593S1296,621.459,1316.335,695.76Z" fill="#dfebfd"/>
    </g>
    <g id="Group_95" data-name="Group 95">
      <path id="Path_45" data-name="Path 45" d="M1318.144,675.1s-105.566-121.488-186.877-106.041-57.115,54.407-32.639,50.789,72.115-20.075,116.494.584S1318.144,675.1,1318.144,675.1Z" fill="#dfebfd"/>
    </g>
    <g id="Group_96" data-name="Group 96">
      <path id="Path_46" data-name="Path 46" d="M1991.91,560.406v16.749H1253.793V560.406c0-28.141,30.624-50.951,68.417-50.951H1923.5C1961.286,509.455,1991.91,532.265,1991.91,560.406Z" fill="#f77d48"/>
    </g>
    <g id="Group_97" data-name="Group 97">
      <path id="Path_47" data-name="Path 47" d="M1991.91,577.155V1726.8c0,38.526-30.624,69.744-68.406,69.744H1322.21c-37.793,0-68.417-31.218-68.417-69.744V577.155Z" fill="#c2cfff"/>
    </g>
    <g id="Group_98" data-name="Group 98">
      <path id="Path_48" data-name="Path 48" d="M1923.5,1805.132H1322.2a77.093,77.093,0,0,1-77.005-77.006V577.866a77.092,77.092,0,0,1,77.005-77.005h601.3a77.092,77.092,0,0,1,77,77.005v1150.26A77.093,77.093,0,0,1,1923.5,1805.132Zm-601.3-1287.1a59.9,59.9,0,0,0-59.83,59.83v1150.26a59.9,59.9,0,0,0,59.83,59.83h601.3a59.9,59.9,0,0,0,59.828-59.83V577.866a59.9,59.9,0,0,0-59.828-59.83Z" fill="#f77d48"/>
    </g>
    <g id="Group_99" data-name="Group 99">
      <path id="Rectangle_26" data-name="Rectangle 26" d="M0,0H736.936a0,0,0,0,1,0,0V42.269a46.093,46.093,0,0,1-46.093,46.093H54a54,54,0,0,1-54-54V0A0,0,0,0,1,0,0Z" transform="translate(1256.285 1703.955)" fill="#f77d48"/>
    </g>
    <g id="Group_148" data-name="Group 148">
      <g id="Group_100" data-name="Group 100">
        <path id="Path_49" data-name="Path 49" d="M686.409,1457.887c8.223,46.544,14.255,81.445,14.255,81.445-15.387,63.1,7.752,144.022,26.822,194.936,4.359,11.629,8.5,21.707,11.931,29.639a.572.572,0,0,1,.024.061.186.186,0,0,1,.036.072c.024.061.048.133.084.2l.012.012c.085.228.193.458.29.686a.165.165,0,0,0,.024.073c5.008,11.533,8.355,18.238,8.355,18.238l28.11,1.265s-2.154-12.1-4.55-32.506a1.526,1.526,0,0,1-.024-.2c-.771-6.586-1.565-14.026-2.323-22.212-4.274-46.315-7.248-116.118,2.744-186.413,24.4-171.664-7.837-286.7-7.837-286.7L661.115,1289.8l-4.816,1.542C665.485,1339.977,677.284,1406.131,686.409,1457.887Z" fill="#ffb27d"/>
      </g>
      <g id="Group_101" data-name="Group 101">
        <path id="Path_50" data-name="Path 50" d="M666.761,1346.244c9.175,48.634,10.526,59.893,19.65,111.648,56.652-98.89,48.321-124.72,48.321-124.72Z" fill="#f4a671"/>
      </g>
      <g id="Group_102" data-name="Group 102">
        <path id="Path_51" data-name="Path 51" d="M488.945,1750.857c.06,1.831.144,3.588.216,5.286.819,16.578,2.228,26.69,2.228,26.69l27.111-9.415s1.277-3.912,3.528-10.654c.915-2.744,2-5.959,3.215-9.583.024-.048.035-.073.035-.073,2.216-6.561,4.912-14.446,7.97-23.186,18.457-52.912,49.866-137.618,68.153-157.109,52.31-55.742,129.312-298.835,129.312-298.835l-104.042-33.756c-15.434,14.952-27.966,42.943-38.067,75.9-25.486,83.166-35.383,197.946-36.719,214.561v.047a5.745,5.745,0,0,1-1.65,3.347c-48.685,54.176-60.1,133.092-61.471,187.437C488.5,1732.413,488.62,1742.334,488.945,1750.857Z" fill="#ffb27d"/>
      </g>
      <g id="Group_103" data-name="Group 103">
        <path id="Path_52" data-name="Path 52" d="M690.626,1355.011l18.065-2.223a167.6,167.6,0,0,1,25.193-6.2c25.576-4.278,45-1.8,45-1.8-7.843-83.875-19.206-110.628-19.206-110.628l-37.733,66.046Z" fill="#f77d48"/>
      </g>
      <g id="Group_104" data-name="Group 104">
        <path id="Path_53" data-name="Path 53" d="M690.626,1355.011l18.065-2.223a167.6,167.6,0,0,1,25.193-6.2c1.141-16.1-5.342-33.358-11.939-46.386Z" fill="#dd5f33"/>
      </g>
      <g id="Group_105" data-name="Group 105">
        <path id="Path_54" data-name="Path 54" d="M759.677,1234.156s-24.945,18.845-50.217,17.1-99.052-18.59-99.052-18.59-13.669,19.855-23.238,59.257c-9.876,40.667-9.876,70.876-9.876,70.876s86.562-11.328,121.419,6.971Z" fill="#f77d48"/>
      </g>
      <g id="Group_106" data-name="Group 106">
        <path id="Path_55" data-name="Path 55" d="M741.825,1810.2c10.233.145,34.311-2.6,43.943,0l38.729.013c9.029-5.538,12.665-11.967-11.244-14.917-34.528-4.273-40.789-38.922-41.451-43.28a1.526,1.526,0,0,1-.024-.2l-.036-.253-32.325,12.351a.572.572,0,0,1,.024.061.186.186,0,0,1,.036.072,1.08,1.08,0,0,1,.084.2l.012.012c.072.169.169.4.29.686a.165.165,0,0,0,.024.073,32.517,32.517,0,0,1,.132,21.85C736.961,1795.667,731.592,1810.053,741.825,1810.2Z" fill="#ffb27d"/>
      </g>
      <g id="Group_107" data-name="Group 107">
        <path id="Path_56" data-name="Path 56" d="M487.9,1810.2c10.234.145,34.312-2.6,43.943,0l38.729.013c9.03-5.538,12.473-10.715-11.232-14.917-34.9-6.188-38.85-22.115-37.309-32.529a28.293,28.293,0,0,1,3.215-9.583c.024-.048.035-.073.035-.073l-36.333-2.251s.144,2.059.216,5.286c.193,7.621.048,21.778-3.069,30.723C483.034,1795.667,477.665,1810.053,487.9,1810.2Z" fill="#ffb27d"/>
      </g>
      <g id="Group_108" data-name="Group 108">
        <path id="Path_57" data-name="Path 57" d="M739.887,1765.016a32.517,32.517,0,0,1,.132,21.85c-3.058,8.8-8.427,23.187,1.806,23.331s34.311-2.6,43.943,0l38.729.013c9.029-5.538,12.665-11.967-11.244-14.917-34.528-4.273-40.789-38.922-41.451-43.28a1.526,1.526,0,0,1-.024-.2c-.771-6.586-1.565-14.026-2.323-22.212,0,0-15.977,11.834-41.969,4.659v.012c4.359,11.629,8.5,21.707,11.931,29.639a.572.572,0,0,1,.024.061.186.186,0,0,1,.036.072c.024.061.048.133.084.2l.012.012c.085.228.193.458.29.686A.165.165,0,0,0,739.887,1765.016Z" fill="#739af0"/>
      </g>
      <g id="Group_109" data-name="Group 109">
        <path id="Path_58" data-name="Path 58" d="M487.9,1810.2c10.234.145,34.312-2.6,43.943,0l38.729.013c9.03-5.538,12.473-10.715-11.232-14.917-34.9-6.188-38.85-22.115-37.309-32.529.915-2.744,2-5.959,3.215-9.583.024-.048.035-.073.035-.073,2.216-6.561,4.912-14.446,7.97-23.186-9.956.084-28.159-.964-44.484-8.4-.265,10.894-.144,20.815.181,29.338.06,1.831.144,3.588.216,5.286.193,7.621.048,21.778-3.069,30.723C483.034,1795.667,477.665,1810.053,487.9,1810.2Z" fill="#739af0"/>
      </g>
      <g id="Group_110" data-name="Group 110">
        <path id="Path_59" data-name="Path 59" d="M715.56,984.6s50.272,15.617,56.082,37.693c9.266,35.212,21.1,104.774,21.1,104.774l53.929-66.872,19.414,9.348s-46.02,123.678-84.848,117.925S715.56,984.6,715.56,984.6Z" fill="#f4a671"/>
      </g>
      <g id="Group_111" data-name="Group 111">
        <path id="Path_60" data-name="Path 60" d="M601.4,999.415C582.652,1040.668,563.932,1179.8,558.7,1192s-21.205,79.3-34.857,112.414l17.429,5.229s57.515-95.423,62.743-120.257,33.9-125.84,33.9-125.84S607.213,986.634,601.4,999.415Z" fill="#ffb27d"/>
      </g>
      <g id="Group_112" data-name="Group 112">
        <path id="Path_61" data-name="Path 61" d="M617.713,1095.577l-27.366,169.112s66.5,36.822,181.807-.2c0,0-7.8-163.7-1.4-196.816q.339-1.791.549-3.555c3.7-31.5-5.409-54.8-12.532-69.845,0,0-40.233-22.2-112.632-12.188-10.371,1.434-28.452,4.04-41.575,13.591A116.173,116.173,0,0,1,619,1020.051a60.062,60.062,0,0,1,3.747,12.043c2.031,10.849,7.408,31.519-4.793,47.78Z" fill="#739af0"/>
      </g>
      <g id="Group_114" data-name="Group 114">
        <g id="Group_113" data-name="Group 113">
          <path id="Path_62" data-name="Path 62" d="M462.675,1315.531c4.315-16.087,21.362-25.494,38.075-21.011a32.244,32.244,0,0,1,11.388,5.625l6.585,4.777-.8,1.027a29.7,29.7,0,0,1,5.285,25.815c-4.315,16.087-21.362,25.494-38.076,21.011q-1.571-.422-3.061-.983l-.764.977-7.462-5.53,0-.006A30.163,30.163,0,0,1,462.675,1315.531Z" fill="#ef7e29"/>
        </g>
      </g>
      <g id="Group_115" data-name="Group 115">
        <path id="Path_63" data-name="Path 63" d="M529.446,1336.309c4.315-16.087-5.738-32.762-22.452-37.244s-33.761,4.924-38.075,21.011,5.738,32.761,22.452,37.244S525.132,1352.4,529.446,1336.309Z" fill="#f99746"/>
      </g>
      <g id="Group_116" data-name="Group 116">
        <path id="Path_64" data-name="Path 64" d="M493.362,1327.926c.314-3.592,4.679-7.144,9.377-5.409,1.9.7,52.278,32.228,52.278,32.228l-10.777,13.343-48.884-34.9A5.8,5.8,0,0,1,493.362,1327.926Z" fill="#ef7e29"/>
      </g>
      <g id="Group_118" data-name="Group 118">
        <g id="Group_117" data-name="Group 117">
          <path id="Path_65" data-name="Path 65" d="M902.83,1019.842c-4.315-16.087-21.362-25.494-38.076-21.011a32.265,32.265,0,0,0-11.387,5.624l-6.584,4.777.8,1.028a29.7,29.7,0,0,0-5.284,25.814c4.315,16.087,21.362,25.494,38.075,21.012q1.572-.422,3.062-.983l.764.976,7.462-5.529,0-.006A30.164,30.164,0,0,0,902.83,1019.842Z" fill="#ef7e29"/>
        </g>
      </g>
      <g id="Group_119" data-name="Group 119">
        <path id="Path_66" data-name="Path 66" d="M836.059,1040.619c-4.315-16.087,5.737-32.762,22.452-37.244s33.76,4.925,38.075,21.012-5.738,32.761-22.452,37.244S840.373,1056.706,836.059,1040.619Z" fill="#f99746"/>
      </g>
      <g id="Group_120" data-name="Group 120">
        <path id="Path_67" data-name="Path 67" d="M872.143,1032.236c-.314-3.591-4.679-7.143-9.377-5.409-1.9.7-52.278,32.23-52.278,32.23l10.777,13.342,48.883-34.9A5.8,5.8,0,0,0,872.143,1032.236Z" fill="#ef7e29"/>
      </g>
      <g id="Group_121" data-name="Group 121">
        <path id="Path_68" data-name="Path 68" d="M865.976,1069.653s17.977-22.291,5.034-33.8-29.721-8.149-30.2-1.437,5.752,25.886,5.752,25.886Z" fill="#f4a671"/>
      </g>
      <g id="Group_122" data-name="Group 122">
        <path id="Path_69" data-name="Path 69" d="M525.081,1301.511s-5.3,12.49-10.82,15.975-13.363,11.911-11.91,18.591,2.9,17.138,9.876,17.138,23.238-30.79,25.271-36.6,3.777-6.971,3.777-6.971Z" fill="#ffb27d"/>
      </g>
      <g id="Group_124" data-name="Group 124">
        <g id="Group_123" data-name="Group 123">
          <path id="Path_70" data-name="Path 70" d="M501.139,1344.4c4.693-17.5,23.237-27.734,41.42-22.858a35.078,35.078,0,0,1,12.388,6.119l7.163,5.2-.875,1.119a32.3,32.3,0,0,1,5.749,28.083c-4.694,17.5-23.238,27.733-41.421,22.857q-1.708-.459-3.33-1.07l-.831,1.062-8.118-6.014.005-.007A32.81,32.81,0,0,1,501.139,1344.4Z" fill="#ef7e29"/>
        </g>
      </g>
      <g id="Group_125" data-name="Group 125">
        <path id="Path_71" data-name="Path 71" d="M573.776,1367c4.694-17.5-6.242-35.64-24.424-40.516s-36.728,5.358-41.421,22.858,6.242,35.639,24.424,40.515S569.083,1384.5,573.776,1367Z" fill="#f99746"/>
      </g>
      <g id="Group_127" data-name="Group 127">
        <g id="Group_126" data-name="Group 126">
          <path id="Path_72" data-name="Path 72" d="M530.052,1353.939a10.864,10.864,0,0,1,13.447-7.421,11.4,11.4,0,0,1,4.022,1.986l2.326,1.687-.285.364a10.483,10.483,0,0,1,1.867,9.117,10.866,10.866,0,0,1-13.448,7.421q-.555-.15-1.081-.348l-.27.345-2.635-1.952v0A10.654,10.654,0,0,1,530.052,1353.939Z" fill="#ef7e29"/>
        </g>
      </g>
      <g id="Group_128" data-name="Group 128">
        <path id="Path_73" data-name="Path 73" d="M553.634,1361.277a11.074,11.074,0,1,0-13.448,7.42A10.865,10.865,0,0,0,553.634,1361.277Z" fill="#f99746"/>
      </g>
      <g id="Group_130" data-name="Group 130">
        <g id="Group_129" data-name="Group 129">
          <path id="Path_74" data-name="Path 74" d="M864.366,1048.706c-4.693-17.5-23.238-27.733-41.42-22.857a35.111,35.111,0,0,0-12.388,6.119l-7.163,5.2.874,1.119a32.3,32.3,0,0,0-5.748,28.082c4.693,17.5,23.238,27.734,41.42,22.858q1.71-.459,3.331-1.07l.831,1.063,8.118-6.016-.005-.006C862.656,1075.2,867.872,1061.777,864.366,1048.706Z" fill="#ef7e29"/>
        </g>
      </g>
      <g id="Group_131" data-name="Group 131">
        <path id="Path_75" data-name="Path 75" d="M791.728,1071.309c-4.692-17.5,6.243-35.64,24.425-40.516s36.727,5.357,41.421,22.857-6.242,35.64-24.425,40.516S796.422,1088.81,791.728,1071.309Z" fill="#f99746"/>
      </g>
      <g id="Group_135" data-name="Group 135">
        <g id="Group_133" data-name="Group 133">
          <g id="Group_132" data-name="Group 132">
            <path id="Path_76" data-name="Path 76" d="M835.453,1058.249a10.864,10.864,0,0,0-13.447-7.421,11.4,11.4,0,0,0-4.022,1.987l-2.326,1.687.284.363a10.489,10.489,0,0,0-1.866,9.117,10.865,10.865,0,0,0,13.447,7.421,11.168,11.168,0,0,0,1.082-.346l.269.344,2.636-1.953v0A10.653,10.653,0,0,0,835.453,1058.249Z" fill="#ef7e29"/>
          </g>
        </g>
        <g id="Group_134" data-name="Group 134">
          <path id="Path_77" data-name="Path 77" d="M811.871,1065.588a11.074,11.074,0,1,1,13.447,7.421A10.864,10.864,0,0,1,811.871,1065.588Z" fill="#f99746"/>
        </g>
      </g>
      <g id="Group_136" data-name="Group 136">
        <path id="Path_78" data-name="Path 78" d="M644.536,983.19s-28.265,2.072-45.611,13.657-33.386,77.827-33.386,77.827,15.149,21.685,54.954,19.011l28.22-32.751Z" fill="#739af0"/>
      </g>
      <g id="Group_137" data-name="Group 137">
        <path id="Path_79" data-name="Path 79" d="M656.688,823.327s-6.971-27.886-47.928-19.171c0,0,19.607-2.47,24.98,5.083,0,0-15.54-7.117-25.271-1.162s-11.328,26-9.876,32.1,12.2,24.254,19.317,24.254,15.54-6.245,15.54-6.245Z" fill="#2c3a64"/>
      </g>
      <g id="Group_138" data-name="Group 138">
        <path id="Path_80" data-name="Path 80" d="M730.324,852.084s-51.85-62.307-79.3-22.439c0,0-20.479,8.5-27.886,43.353-7.557,35.565,16.093,62.6,28.321,55.917,7.843-4.285,13.78,9.44,13.78,9.44Z" fill="#2c3a64"/>
      </g>
      <g id="Group_139" data-name="Group 139">
        <path id="Path_81" data-name="Path 81" d="M709,990.906c-19.99,10.792-47.4-.393-53.571-8.484-2.28-2.99,10.141-18.041,10.019-52.117l2.608.514,43.864,8.685s-1,13.8-1.028,26.809C710.866,977.231,711.43,989.595,709,990.906Z" fill="#ffb27d"/>
      </g>
      <g id="Group_140" data-name="Group 140">
        <path id="Path_82" data-name="Path 82" d="M711.923,939.5s-1,13.8-1.028,26.809c-24.545-.692-37.52-23.083-42.836-35.494Z" fill="#f4a671"/>
      </g>
      <g id="Group_141" data-name="Group 141">
        <path id="Path_83" data-name="Path 83" d="M663.529,926.043s-12.863-20.324-15.95-37.7c-2.2-12.407,4.115-58.4,50.331-51.775a62.789,62.789,0,0,1,26.04,9.845c10.034,6.776,24.516,21.408,8.324,61.541l-4.206,13.557Z" fill="#2c3a64"/>
      </g>
      <g id="Group_142" data-name="Group 142">
        <path id="Path_84" data-name="Path 84" d="M720.12,951.818s-58.074.958-58.114-35.217-7.563-60.414,29.515-62.555,44.3,11.655,47.247,23.725S735.226,950.637,720.12,951.818Z" fill="#ffb27d"/>
      </g>
      <g id="Group_143" data-name="Group 143">
        <path id="Path_85" data-name="Path 85" d="M717.971,853.16s-15.9,42.44-40.3,48.715-34.987-.263-34.987-.263,18.717-14.869,22.6-40.825C665.283,860.787,705.977,832.96,717.971,853.16Z" fill="#2c3a64"/>
      </g>
      <g id="Group_144" data-name="Group 144">
        <path id="Path_86" data-name="Path 86" d="M714.03,856.6s11.874,9.475,14.77,18.687,4.2,28.175,9.724,27.53c0,0,11.979-28.846-1.484-45.164C722.765,840.355,714.03,856.6,714.03,856.6Z" fill="#2c3a64"/>
      </g>
      <g id="Group_145" data-name="Group 145">
        <path id="Path_87" data-name="Path 87" d="M716.236,858.039s-11.329,44.443-42.119,58.676c0,0,30.79-27.305,33.4-56.643S716.236,858.039,716.236,858.039Z" fill="#2c3a64"/>
      </g>
      <g id="Group_146" data-name="Group 146">
        <path id="Path_88" data-name="Path 88" d="M727.008,930.613s-1.506,3.332-2.167,4.988-10.335,1.732-13.4-.123c-2.545-1.544-5.66-5.823-5.5-5.661C705.949,929.817,722.653,929.431,727.008,930.613Z" fill="#fff"/>
      </g>
      <g id="Group_147" data-name="Group 147">
        <path id="Path_89" data-name="Path 89" d="M758.771,994.274s24.9,9.8,28.863,73.172a41.063,41.063,0,0,1-25.016,15.914C732.376,1089.154,758.771,994.274,758.771,994.274Z" fill="#739af0"/>
      </g>
    </g>
    <g id="Group_149" data-name="Group 149">
      <rect id="Rectangle_27" data-name="Rectangle 27" width="292.635" height="410.443" rx="27.237" transform="translate(1311.087 749.745)" fill="#dce5ff"/>
    </g>
    <g id="Group_154" data-name="Group 154">
      <g id="Group_151" data-name="Group 151">
        <g id="Group_150" data-name="Group 150">
          <path id="Path_90" data-name="Path 90" d="M1556.9,812.017c-41.944-54.178-97.287,12.234-97.287,12.234s-55.344-66.412-97.288-12.234,97.288,158.458,97.288,158.458S1598.85,866.2,1556.9,812.017Z" fill="#f77d48"/>
        </g>
      </g>
      <g id="Group_153" data-name="Group 153">
        <g id="Group_152" data-name="Group 152">
          <path id="Path_91" data-name="Path 91" d="M1459.326,893.762c-.042,0-.085,0-.129-.005a1.643,1.643,0,0,1-1.5-1.454l-4.111-36.537-7.8,36.694a1.642,1.642,0,0,1-1.606,1.3h-14.564a1.639,1.639,0,0,1-1.469-.908l-3.851-7.7-4.313,7.765a1.642,1.642,0,0,1-1.436.845h-8.738a1.641,1.641,0,0,1-1.548-1.1l-9.092-25.756-11.156,25.86a1.64,1.64,0,0,1-1.507.992H1344.56a1.642,1.642,0,1,1,0-3.284h40.865l12.389-28.72a1.673,1.673,0,0,1,1.563-.99,1.642,1.642,0,0,1,1.493,1.094l10.1,28.616h6.61l5.355-9.642a1.643,1.643,0,0,1,2.9.063l4.789,9.579h12.22l9.627-45.305a1.616,1.616,0,0,1,1.686-1.3,1.643,1.643,0,0,1,1.552,1.457L1460,883.459l4.146-15.077a1.642,1.642,0,0,1,3.194.113l4.4,21.983h17.273l13.609-41.4a1.643,1.643,0,0,1,3.177.224l7.334,41.174h5.165l7.125-14.8a1.624,1.624,0,0,1,1.641-.922,1.641,1.641,0,0,1,1.428,1.223l3.76,14.5h23.778a1.642,1.642,0,1,1,0,3.284h-25.05a1.642,1.642,0,0,1-1.589-1.23l-2.953-11.39-5.628,11.69a1.645,1.645,0,0,1-1.48.93h-7.573a1.642,1.642,0,0,1-1.617-1.354l-6.432-36.114-11.946,36.338a1.644,1.644,0,0,1-1.56,1.13h-19.808a1.643,1.643,0,0,1-1.611-1.321l-3.3-16.512-4.572,16.626A1.643,1.643,0,0,1,1459.326,893.762Z" fill="#fff"/>
        </g>
      </g>
    </g>
    <g id="Group_155" data-name="Group 155">
      <rect id="Rectangle_28" data-name="Rectangle 28" width="277.049" height="410.443" rx="26.502" transform="translate(1662.083 749.745)" fill="#739af0"/>
    </g>
    <g id="Group_162" data-name="Group 162">
      <g id="Group_158" data-name="Group 158">
        <g id="Group_156" data-name="Group 156">
          <path id="Path_92" data-name="Path 92" d="M1792.072,880.61c3.44,47.228-14.781,56.41-33.014,56.41s-38.439-6.062-33.014-56.41c3.337-30.974,14.78-56.409,33.014-56.409S1789.81,849.539,1792.072,880.61Z" fill="#dce5ff"/>
        </g>
        <g id="Group_157" data-name="Group 157">
          <path id="Path_93" data-name="Path 93" d="M1789.147,982.307c3.346,25.662-13.471,30.09-30.089,30.09s-33.911-2.422-30.089-30.09c2.274-16.461,13.471-30.089,30.089-30.089S1787,965.829,1789.147,982.307Z" fill="#dce5ff"/>
        </g>
      </g>
      <g id="Group_161" data-name="Group 161">
        <g id="Group_159" data-name="Group 159">
          <path id="Path_94" data-name="Path 94" d="M1875.428,919.233c3.439,47.228-14.781,56.409-33.015,56.409s-38.438-6.061-33.015-56.409c3.338-30.975,14.782-56.409,33.015-56.409S1873.165,888.161,1875.428,919.233Z" fill="#dce5ff"/>
        </g>
        <g id="Group_160" data-name="Group 160">
          <path id="Path_95" data-name="Path 95" d="M1872.5,1020.93c3.347,25.661-13.471,30.089-30.089,30.089s-33.911-2.422-30.089-30.089c2.274-16.462,13.472-30.09,30.089-30.09S1870.354,1004.451,1872.5,1020.93Z" fill="#dce5ff"/>
        </g>
      </g>
    </g>
    <g id="Group_164" data-name="Group 164">
      <g id="Group_163" data-name="Group 163">
        <rect id="Rectangle_29" data-name="Rectangle 29" width="634.548" height="398.743" rx="39.532" transform="translate(1304.584 1228.113)" fill="#739af0"/>
      </g>
    </g>
    <g id="Group_168" data-name="Group 168">
      <g id="Group_165" data-name="Group 165">
        <path id="Path_96" data-name="Path 96" d="M1424.115,640.986h-100.3a5.941,5.941,0,0,1-5.942-5.941h0a5.941,5.941,0,0,1,5.942-5.941h100.3a5.941,5.941,0,0,1,5.942,5.941h0A5.942,5.942,0,0,1,1424.115,640.986Z" fill="#163560"/>
      </g>
      <g id="Group_166" data-name="Group 166">
        <path id="Path_97" data-name="Path 97" d="M1424.115,665.705h-100.3a5.942,5.942,0,0,1-5.942-5.942h0a5.941,5.941,0,0,1,5.942-5.941h100.3a5.942,5.942,0,0,1,5.942,5.941h0A5.943,5.943,0,0,1,1424.115,665.705Z" fill="#163560"/>
      </g>
      <g id="Group_167" data-name="Group 167">
        <path id="Path_98" data-name="Path 98" d="M1424.115,689.361h-100.3a5.941,5.941,0,0,1-5.942-5.941h0a5.941,5.941,0,0,1,5.942-5.941h100.3a5.942,5.942,0,0,1,5.942,5.941h0A5.942,5.942,0,0,1,1424.115,689.361Z" fill="#163560"/>
      </g>
    </g>
    <g id="Group_197" data-name="Group 197">
      <g id="Group_191" data-name="Group 191">
        <g id="Group_169" data-name="Group 169">
          <path id="Path_99" data-name="Path 99" d="M2274.8,1404.6c-10.709,10.46-26.489,20.985-3.762,47.488,29.141,33.963,69.348,175.653,69.348,175.653-1.93,5.224-.649,12.689-4.548,14.651-6.3,3.17-21.326-8.38-21.326-8.38S2180.6,1479.228,2170.89,1445.536c-7.17-24.872,42.755-140.764,72.149-201.3,10.41-21.449,18.248-35.948,20.059-37.008q.417-.247.834-.467c15.824-8.86,30.147-6.837,42.6,1.3a62.757,62.757,0,0,1,7.716,6.011c30.348,27.495,47.412,89.727,44.6,102.317-1.953,8.763-18.468,26.643-36.473,44.155-3.738,3.634-7.54,7.254-11.291,10.771C2294.744,1386.669,2279.4,1400.12,2274.8,1404.6Z" fill="#f99746"/>
        </g>
        <g id="Group_170" data-name="Group 170">
          <path id="Path_100" data-name="Path 100" d="M2322.377,1360.543c-3.738,3.634-7.54,7.254-11.291,10.771l-68.047-127.081c10.41-21.449,18.248-35.948,20.059-37.008q.417-.247.834-.467l42.6,1.3,7.7.241.017,5.77Z" fill="#ed7d2b"/>
        </g>
        <g id="Group_171" data-name="Group 171">
          <path id="Path_101" data-name="Path 101" d="M2303.427,930.385s13.783,39.739,8.393,62.646-66.431,135.159-87.466,153.791-148.768-72.489-148.768-72.489l13.7-11.73s103.21,32.36,109.205,24.3S2240.1,916.095,2303.427,930.385Z" fill="#ffb27d"/>
        </g>
        <g id="Group_172" data-name="Group 172">
          <path id="Path_102" data-name="Path 102" d="M2283.65,1234.882s19.737,137.237,83.028,236.488c61.162,95.916,87.875,239.249,87.875,239.249s4.207,3.669,13.056.468,14.407,1.574,16.376-2.534c0,0-.31-223.969-31.993-274.73-17.9-28.681-22.715-130.641-20.549-158.2s-8.058-62.039-8.058-62.039Z" fill="#f99746"/>
        </g>
        <g id="Group_176" data-name="Group 176">
          <g id="Group_173" data-name="Group 173">
            <path id="Path_103" data-name="Path 103" d="M2480.9,1749.031l-16.017-.894c-5.318-1.146-9.192-2.92-14.655-3.947-8.3-1.563-12.334,1.647-13.143,2.392-.108.1-.158.151-.158.151l-68.039-3.8c-1.576-2.539.385-8.11,2.227-12.186a9.7,9.7,0,0,1,6.7-5.467c7.332-1.685,21.66-2.751,35.345-13.815,7.7-6.212,36.751-22.372,36.751-22.372l.151-.026c.615.045,3.5,1.112,15.66,12.6,6.287,5.929,18.282-6.857,18.282-6.857a16.02,16.02,0,0,1,3.407,5.207,16.922,16.922,0,0,1,.878,10.527c-1.359,6.073,1.281,17.649,3.464,25.5,1.326,4.758,2.477,8.144,2.477,8.144S2494.772,1748.078,2480.9,1749.031Z" fill="#233862"/>
          </g>
          <g id="Group_174" data-name="Group 174">
            <path id="Path_104" data-name="Path 104" d="M2487.4,1700.016c-3.974,2.48-12.342,7.337-17.735,7.734-7.28.544-19.765-18.66-19.765-18.66l.151-.026c.615.045,3.5,1.112,15.66,12.6,6.287,5.929,18.282-6.857,18.282-6.857A16.02,16.02,0,0,1,2487.4,1700.016Z" fill="#233862"/>
          </g>
          <g id="Group_175" data-name="Group 175">
            <path id="Path_105" data-name="Path 105" d="M2480.9,1749.031l-16.017-.894c-5.318-1.146-9.192-2.92-14.655-3.947-8.3-1.563-12.334,1.647-13.143,2.392-.108.1-.158.151-.158.151l-68.039-3.8c-1.576-2.539.385-8.11,2.227-12.186,2.169-1.722,2.2,8.127,3.257,9.755s55.473,3.675,58.739,1.566,12.91-5.577,25.863-1.7c11.274,3.367,28.5-2.689,32.775-4.317,1.326,4.758,2.477,8.144,2.477,8.144S2494.772,1748.078,2480.9,1749.031Z" fill="#233862"/>
          </g>
        </g>
        <g id="Group_177" data-name="Group 177">
          <path id="Path_106" data-name="Path 106" d="M2432.2,1128.438c4.213-76.113-3.718-186.721-22.3-196.2-15.778-8.049-50.5-20.225-86.9-21.659-28.729-1.133-90.643,8.945-99.456,56.037-5.578,29.809-8.522,54.458-8.522,54.458s5.533,19.52,23.393,25.652c1.793,8.6,2.372,17.068,4.685,24.329,25.8,81,6.658,159.589,6.658,159.589,26.475,24.581,165.232,18.61,179.636,10.3C2452.854,1227.407,2427.987,1204.549,2432.2,1128.438Z" fill="#739af0"/>
        </g>
        <g id="Group_181" data-name="Group 181">
          <g id="Group_178" data-name="Group 178">
            <path id="Path_107" data-name="Path 107" d="M2370.621,1648.5l-12.1,10.531c-4.61,2.889-8.623,4.32-13.253,7.4-7.035,4.666-7.689,9.783-7.749,10.881-.01.145-.007.218-.007.218l-51.406,44.738c-2.9-.721-5.38-6.08-6.9-10.286a9.7,9.7,0,0,1,.984-8.587c4.078-6.323,13.6-17.08,15.688-34.555,1.184-9.821,10.727-41.667,10.727-41.667l.09-.123c.473-.4,3.283-1.645,20.011-1.9,8.641-.137,8.317-17.666,8.317-17.666a16.033,16.033,0,0,1,6.074,1.354,16.933,16.933,0,0,1,7.973,6.931c3.262,5.3,13.228,11.753,20.27,15.856,4.269,2.484,7.455,4.107,7.455,4.107S2379.9,1638.139,2370.621,1648.5Z" fill="#233862"/>
          </g>
          <g id="Group_179" data-name="Group 179">
            <path id="Path_108" data-name="Path 108" d="M2341.092,1608.841c-1.118,4.55-3.726,13.868-7.313,17.914-4.837,5.468-27.179.416-27.179.416l.09-.123c.473-.4,3.283-1.645,20.011-1.9,8.641-.137,8.317-17.666,8.317-17.666A16.033,16.033,0,0,1,2341.092,1608.841Z" fill="#233862"/>
          </g>
          <g id="Group_180" data-name="Group 180">
            <path id="Path_109" data-name="Path 109" d="M2370.621,1648.5l-12.1,10.531c-4.61,2.889-8.623,4.32-13.253,7.4-7.035,4.666-7.689,9.783-7.749,10.881-.01.145-.007.218-.007.218l-51.406,44.738c-2.9-.721-5.38-6.08-6.9-10.286.352-2.748,7.247,4.288,9.138,4.718s42.31-36.063,43.181-39.852,5.359-13,17.342-19.261c10.428-5.452,18.548-21.812,20.473-25.957,4.269,2.484,7.455,4.107,7.455,4.107S2379.9,1638.139,2370.621,1648.5Z" fill="#233862"/>
          </g>
        </g>
        <g id="Group_182" data-name="Group 182">
          <path id="Path_110" data-name="Path 110" d="M2369.788,940.119s42.022,1.837,61.328,15.29,101.154,111.577,110.719,138-95.356,94.542-95.356,94.542l-12.989-23.425s48.394-60.62,43.116-69.162S2333.16,993.719,2369.788,940.119Z" fill="#ffb27d"/>
        </g>
        <g id="Group_183" data-name="Group 183">
          <path id="Path_111" data-name="Path 111" d="M2438.979,1161.341l16.054,13.822s-16.477,31.017-24.689,33.569l-.842.121c-8.741,1.255-29.455-13.956-32.253-28.653a8.065,8.065,0,0,1,.431-4.179c3.8-8.591,24.2-12.474,34.839-13.936C2436.4,1161.552,2438.979,1161.341,2438.979,1161.341Z" fill="#ffb27d"/>
        </g>
        <g id="Group_184" data-name="Group 184">
          <path id="Path_112" data-name="Path 112" d="M2100.683,1066.049l-9.454,18.959s-34.115-8.35-38.606-15.682l-.324-.786c-3.365-8.165,6.289-31.982,19.848-38.306a8.06,8.06,0,0,1,4.157-.61c9.261,1.569,18.038,20.4,22.069,30.347C2099.844,1063.6,2100.683,1066.049,2100.683,1066.049Z" fill="#ffb27d"/>
        </g>
        <g id="Group_185" data-name="Group 185">
          <path id="Path_113" data-name="Path 113" d="M2355.254,914.45s38.849,3.879,65.859,22.761c12.441,8.7,59.341,58.265,59.341,58.265s-8.159,48.665-67.794,58.723c-60.7,10.237-64.862-90.506-64.862-90.506Z" fill="#739af0"/>
        </g>
        <g id="Group_186" data-name="Group 186">
          <path id="Path_114" data-name="Path 114" d="M2344.541,914.576a8.355,8.355,0,0,1-.345,9.161c-5.677,8.006-21.1,21.541-59.089,16.835-13.015-1.613-15.47-11.658-6.649-21.362,2.149-2.364,2.243-16.627,2.34-22.345a185.961,185.961,0,0,1,.86-20.613l28.027-17.02,26.6-16.314C2329.8,884.119,2339.572,906.371,2344.541,914.576Z" fill="#ffb27d"/>
        </g>
        <g id="Group_187" data-name="Group 187">
          <path id="Path_115" data-name="Path 115" d="M2334.215,863.678s-20.471,28.516-53.417,33.187a185.961,185.961,0,0,1,.86-20.613l28.027-17.02Z" fill="#ed985f"/>
        </g>
        <g id="Group_188" data-name="Group 188">
          <path id="Path_116" data-name="Path 116" d="M2270.1,873.955s62.01,18.025,72.669-20.147,25.839-61.556-13.3-74.679-50.934-.676-57.641,11.2S2254.242,868.282,2270.1,873.955Z" fill="#ffb27d"/>
        </g>
        <g id="Group_189" data-name="Group 189">
          <path id="Path_117" data-name="Path 117" d="M2375.063,779.936c.655-.588,2.043-.958,5.011-.762a12.056,12.056,0,0,0-5.319-2.219c-.118-4.175-1.419-11.7-8.261-14.314a8.908,8.908,0,0,1,3.513,6.9c-7.153-9.384-23.922-17.617-72.872-19.674-64.512-2.709-48.417,40.759-40.737,46.64s30.127-4.964,45.392-1.87,15.493,25.721,20.352,29.412,3.458-1.963,10.92-4.3,6.712,9.465,3.745,16.839,5.532,18.607,5.532,18.607l11.106-9.387c11.107-9.387,25.8-53.073,22.495-63.167C2375.648,781.747,2375.362,780.845,2375.063,779.936Z" fill="#2c3a64"/>
        </g>
        <g id="Group_190" data-name="Group 190">
          <path id="Path_118" data-name="Path 118" d="M2266.033,849.23a9.727,9.727,0,0,0,7.718,6.91,13.191,13.191,0,0,0,10.737-3.218S2274.316,847.49,2266.033,849.23Z" fill="#fff"/>
        </g>
      </g>
      <g id="Group_196" data-name="Group 196">
        <g id="Group_192" data-name="Group 192">
          <path id="Path_119" data-name="Path 119" d="M1805.356,1103.787h57.014l91.9,112.223-63.256-5.861Z" fill="#1e4077"/>
        </g>
        <g id="Group_193" data-name="Group 193">
          <path id="Path_120" data-name="Path 120" d="M2077.611,1700.808c-80.507-40.861-204.252-38.777-204.254-38.777l41.344-429.053,127.261,8.846a22.668,22.668,0,0,1,13.544,5.724l57.594,51.577,11.63-12.987-63.455-56.827a17.151,17.151,0,0,0-9.858-4.3l-160.4-14.862-85.662-106.361-4.974,4.008a11.047,11.047,0,0,0-1.675,15.532l86.636,107.612h0l-53.367,553.819v5.618a17.2,17.2,0,0,0,17.2,17.2h913.991v-22.815h0a19.293,19.293,0,0,0-17.812-19.236l-600.514-46.194A178.688,178.688,0,0,1,2077.611,1700.808Z" fill="#3d5db7"/>
        </g>
        <g id="Group_194" data-name="Group 194">
          <path id="Path_121" data-name="Path 121" d="M2140.854,1303.478l-9.207,10.313a12.254,12.254,0,0,1-17.25.976l-59.443-53.077a12.252,12.252,0,0,1-.975-17.25l9.209-10.313a12.251,12.251,0,0,1,17.248-.976l59.443,53.077A12.252,12.252,0,0,1,2140.854,1303.478Z" fill="#f99746"/>
        </g>
        <g id="Group_195" data-name="Group 195">
          <path id="Path_122" data-name="Path 122" d="M1891.018,1210.148l51.338-8.691,107.269,23.387Z" fill="#3d5db7"/>
        </g>
      </g>
    </g>
    <g id="Group_219" data-name="Group 219">
      <g id="Group_198" data-name="Group 198">
        <rect id="Rectangle_30" data-name="Rectangle 30" width="64.567" height="38.498" transform="translate(1480.046 1440.781)" fill="#dce5ff"/>
      </g>
      <g id="Group_199" data-name="Group 199">
        <rect id="Rectangle_31" data-name="Rectangle 31" width="64.567" height="38.497" transform="translate(1480.046 1389.229)" fill="#dce5ff"/>
      </g>
      <g id="Group_200" data-name="Group 200">
        <rect id="Rectangle_32" data-name="Rectangle 32" width="64.567" height="38.498" transform="translate(1565.906 1440.781)" fill="#dce5ff"/>
      </g>
      <g id="Group_201" data-name="Group 201">
        <rect id="Rectangle_33" data-name="Rectangle 33" width="64.567" height="38.497" transform="translate(1565.906 1389.229)" fill="#dce5ff"/>
      </g>
      <g id="Group_202" data-name="Group 202">
        <rect id="Rectangle_34" data-name="Rectangle 34" width="64.567" height="38.498" transform="translate(1565.906 1337.678)" fill="#dce5ff"/>
      </g>
      <g id="Group_203" data-name="Group 203">
        <rect id="Rectangle_35" data-name="Rectangle 35" width="64.567" height="38.498" transform="translate(1649.487 1440.781)" fill="#dce5ff"/>
      </g>
      <g id="Group_204" data-name="Group 204">
        <rect id="Rectangle_36" data-name="Rectangle 36" width="64.567" height="38.497" transform="translate(1649.487 1389.229)" fill="#dce5ff"/>
      </g>
      <g id="Group_205" data-name="Group 205">
        <rect id="Rectangle_37" data-name="Rectangle 37" width="64.567" height="38.498" transform="translate(1729.338 1440.781)" fill="#dce5ff"/>
      </g>
      <g id="Group_210" data-name="Group 210">
        <g id="Group_206" data-name="Group 206">
          <rect id="Rectangle_38" data-name="Rectangle 38" width="64.567" height="38.498" transform="translate(1480.046 1493.125)" fill="#dce5ff"/>
        </g>
        <g id="Group_207" data-name="Group 207">
          <rect id="Rectangle_39" data-name="Rectangle 39" width="64.567" height="38.498" transform="translate(1565.906 1493.125)" fill="#dce5ff"/>
        </g>
        <g id="Group_208" data-name="Group 208">
          <rect id="Rectangle_40" data-name="Rectangle 40" width="64.567" height="38.498" transform="translate(1649.487 1493.125)" fill="#dce5ff"/>
        </g>
        <g id="Group_209" data-name="Group 209">
          <rect id="Rectangle_41" data-name="Rectangle 41" width="64.567" height="38.498" transform="translate(1729.338 1493.125)" fill="#dce5ff"/>
        </g>
      </g>
      <g id="Group_215" data-name="Group 215">
        <g id="Group_211" data-name="Group 211">
          <rect id="Rectangle_42" data-name="Rectangle 42" width="64.567" height="38.498" transform="translate(1480.046 1545.47)" fill="#dce5ff"/>
        </g>
        <g id="Group_212" data-name="Group 212">
          <rect id="Rectangle_43" data-name="Rectangle 43" width="64.567" height="38.498" transform="translate(1565.906 1545.47)" fill="#dce5ff"/>
        </g>
        <g id="Group_213" data-name="Group 213">
          <rect id="Rectangle_44" data-name="Rectangle 44" width="64.567" height="38.498" transform="translate(1649.487 1545.47)" fill="#dce5ff"/>
        </g>
        <g id="Group_214" data-name="Group 214">
          <rect id="Rectangle_45" data-name="Rectangle 45" width="64.567" height="38.498" transform="translate(1729.338 1545.47)" fill="#dce5ff"/>
        </g>
      </g>
      <g id="Group_216" data-name="Group 216">
        <rect id="Rectangle_46" data-name="Rectangle 46" width="64.567" height="38.497" transform="translate(1729.338 1389.229)" fill="#dce5ff"/>
      </g>
      <g id="Group_217" data-name="Group 217">
        <rect id="Rectangle_47" data-name="Rectangle 47" width="64.567" height="38.498" transform="translate(1729.338 1337.678)" fill="#dce5ff"/>
      </g>
      <g id="Group_218" data-name="Group 218">
        <rect id="Rectangle_48" data-name="Rectangle 48" width="64.567" height="38.498" transform="translate(1729.338 1286.126)" fill="#dce5ff"/>
      </g>
    </g>
    <g id="Group_220" data-name="Group 220">
      <path id="Rectangle_49" data-name="Rectangle 49" d="M24.782,0H388.987A24.782,24.782,0,0,1,413.77,24.782V825.941a24.783,24.783,0,0,1-24.783,24.783H24.783A24.783,24.783,0,0,1,0,825.941V24.782A24.782,24.782,0,0,1,24.782,0Z" transform="translate(967.327 954.408)" fill="#3d5db7"/>
    </g>
    <g id="Group_221" data-name="Group 221">
      <path id="Rectangle_50" data-name="Rectangle 50" d="M49.8,0H444.643a49.8,49.8,0,0,1,49.8,49.8V465.967a49.8,49.8,0,0,1-49.8,49.8H49.8A49.8,49.8,0,0,1,0,465.966V49.8A49.8,49.8,0,0,1,49.8,0Z" transform="translate(924.827 1083.02)" fill="#f77d48"/>
    </g>
    <g id="Group_222" data-name="Group 222">
      <rect id="Rectangle_51" data-name="Rectangle 51" width="442.136" height="461.203" rx="33.229" transform="translate(950.983 1110.303)" fill="#163560"/>
    </g>
    <g id="Group_229" data-name="Group 229">
      <g id="Group_223" data-name="Group 223">
        <rect id="Rectangle_52" data-name="Rectangle 52" width="172.558" height="175.878" rx="13.691" transform="translate(1184.829 1150.244)" fill="#dce5ff"/>
      </g>
      <g id="Group_228" data-name="Group 228">
        <g id="Group_225" data-name="Group 225">
          <g id="Group_224" data-name="Group 224">
            <path id="Path_123" data-name="Path 123" d="M1334.893,1195.728c-25.961-33.534-60.216,7.572-60.216,7.572s-34.255-41.106-60.216-7.572,60.216,98.077,60.216,98.077S1360.855,1229.262,1334.893,1195.728Z" fill="#f77d48"/>
          </g>
        </g>
        <g id="Group_227" data-name="Group 227">
          <g id="Group_226" data-name="Group 226">
            <path id="Path_124" data-name="Path 124" d="M1274.5,1246.323c-.026,0-.053,0-.08,0a1.016,1.016,0,0,1-.93-.9l-2.545-22.614-4.826,22.712a1.016,1.016,0,0,1-.994.805h-9.015a1.018,1.018,0,0,1-.909-.561l-2.383-4.768-2.669,4.807a1.019,1.019,0,0,1-.889.522h-5.409a1.014,1.014,0,0,1-.958-.678l-5.627-15.942-6.906,16.006a1.015,1.015,0,0,1-.933.614h-25.961a1.016,1.016,0,1,1,0-2.033h25.293l7.668-17.775a1.039,1.039,0,0,1,.968-.614,1.016,1.016,0,0,1,.923.678l6.252,17.711h4.091l3.315-5.968a1.018,1.018,0,0,1,1.8.039l2.964,5.929h7.564l5.958-28.04a1,1,0,0,1,1.044-.805,1.017,1.017,0,0,1,.96.9l2.655,23.6,2.566-9.332a1.017,1.017,0,0,1,1.978.071l2.721,13.6h10.691l8.423-25.623a1.017,1.017,0,0,1,1.967.14l4.539,25.483h3.2l4.41-9.16a1,1,0,0,1,1.015-.57,1.018,1.018,0,0,1,.885.756l2.326,8.974h14.719a1.016,1.016,0,0,1,0,2.033h-15.505a1.017,1.017,0,0,1-.985-.762l-1.827-7.049-3.484,7.236a1.016,1.016,0,0,1-.916.575h-4.687a1.017,1.017,0,0,1-1-.838l-3.981-22.352-7.394,22.491a1.017,1.017,0,0,1-.966.7h-12.259a1.016,1.016,0,0,1-1-.817l-2.044-10.221-2.83,10.291A1.016,1.016,0,0,1,1274.5,1246.323Z" fill="#fff"/>
          </g>
        </g>
      </g>
    </g>
    <g id="Group_238" data-name="Group 238">
      <g id="Group_230" data-name="Group 230">
        <rect id="Rectangle_53" data-name="Rectangle 53" width="172.559" height="185.771" rx="14.071" transform="translate(1187.028 1341.771)" fill="#dce5ff"/>
      </g>
      <g id="Group_237" data-name="Group 237">
        <g id="Group_233" data-name="Group 233">
          <g id="Group_231" data-name="Group 231">
            <path id="Path_125" data-name="Path 125" d="M1265.964,1399.154c2.142,29.416-9.206,35.135-20.563,35.135s-23.941-3.775-20.563-35.135c2.079-19.292,9.206-35.133,20.563-35.133S1264.555,1379.8,1265.964,1399.154Z" fill="#163560"/>
          </g>
          <g id="Group_232" data-name="Group 232">
            <path id="Path_126" data-name="Path 126" d="M1264.142,1462.5c2.085,15.982-8.39,18.74-18.741,18.74s-21.121-1.508-18.741-18.74c1.417-10.253,8.391-18.741,18.741-18.741S1262.8,1452.232,1264.142,1462.5Z" fill="#163560"/>
          </g>
        </g>
        <g id="Group_236" data-name="Group 236">
          <g id="Group_234" data-name="Group 234">
            <path id="Path_127" data-name="Path 127" d="M1317.881,1423.21c2.142,29.416-9.206,35.135-20.563,35.135s-23.941-3.776-20.562-35.135c2.078-19.292,9.206-35.134,20.562-35.134S1316.472,1403.857,1317.881,1423.21Z" fill="#163560"/>
          </g>
          <g id="Group_235" data-name="Group 235">
            <path id="Path_128" data-name="Path 128" d="M1316.06,1486.552c2.084,15.982-8.391,18.741-18.742,18.741s-21.121-1.509-18.74-18.741c1.416-10.253,8.39-18.742,18.74-18.742S1314.721,1476.288,1316.06,1486.552Z" fill="#163560"/>
          </g>
        </g>
      </g>
    </g>
    <g id="Group_264" data-name="Group 264">
      <g id="Group_239" data-name="Group 239">
        <path id="Rectangle_54" data-name="Rectangle 54" d="M19.928,0H147.913A19.928,19.928,0,0,1,167.84,19.928v343.2a19.928,19.928,0,0,1-19.928,19.928H19.927A19.927,19.927,0,0,1,0,363.125V19.928A19.928,19.928,0,0,1,19.928,0Z" transform="translate(990.503 1150.244)" fill="#f77d48"/>
      </g>
      <g id="Group_241" data-name="Group 241">
        <g id="Group_240" data-name="Group 240">
          <path id="Path_129" data-name="Path 129" d="M1011.04,1266.647v-6.375l15.128-20.032a13.344,13.344,0,0,0,1.82-3.158,8.329,8.329,0,0,0,.646-3.068v-.06a4.469,4.469,0,0,0-1.338-3.459,5.415,5.415,0,0,0-3.8-1.233,5.171,5.171,0,0,0-3.82,1.473,6.805,6.805,0,0,0-1.774,4.211v.031h-7.4v-.031q.632-5.985,4.06-9.278a12.278,12.278,0,0,1,8.873-3.294q6.015,0,9.324,3.008t3.309,8.481v.031a15.505,15.505,0,0,1-1.008,5.383,19.559,19.559,0,0,1-2.783,5.083l-11.73,15.4H1036.3v6.887Z" fill="#ffcbbb"/>
          <path id="Path_130" data-name="Path 130" d="M1056.305,1267.189q-6.377,0-9.579-3.338t-3.2-9.084V1234.8q0-5.8,3.232-9.113t9.55-3.309q6.346,0,9.565,3.294t3.218,9.128v19.971q0,5.8-3.233,9.114T1056.305,1267.189Zm0-6.888a4.99,4.99,0,0,0,4.286-1.759,7.931,7.931,0,0,0,1.308-4.827v-17.866a7.92,7.92,0,0,0-1.308-4.843,6.138,6.138,0,0,0-8.572,0,7.92,7.92,0,0,0-1.308,4.843v17.866a7.931,7.931,0,0,0,1.308,4.827A4.99,4.99,0,0,0,1056.305,1260.3Z" fill="#ffcbbb"/>
          <path id="Path_131" data-name="Path 131" d="M1076.607,1242.767v-7.339h7.339v7.339Zm0,23.88v-7.338h7.339v7.338Z" fill="#ffcbbb"/>
          <path id="Path_132" data-name="Path 132" d="M1102.623,1222.916v43.731h-7.338V1231.4l-5.624,3.218v-8.15l5.624-3.549Z" fill="#ffcbbb"/>
          <path id="Path_133" data-name="Path 133" d="M1124.46,1267.189a12,12,0,0,1-8.5-3.143q-3.384-3.142-4.015-8.888v-.03h7.188v.03a5.847,5.847,0,0,0,1.684,3.744,5.159,5.159,0,0,0,3.7,1.339,4.854,4.854,0,0,0,3.955-1.684,7.3,7.3,0,0,0,1.4-4.783v-3.759a7.47,7.47,0,0,0-1.338-4.752,4.545,4.545,0,0,0-3.775-1.685,5.426,5.426,0,0,0-3.052.9,6.133,6.133,0,0,0-2.151,2.527h-6.647v-24.091H1135.8v6.887h-15.7v8.783a7.388,7.388,0,0,1,2.556-1.444,9.375,9.375,0,0,1,3.038-.511q5.414,0,8.392,3.5t2.977,9.88v3.759q0,6.408-3.293,9.911T1124.46,1267.189Z" fill="#ffcbbb"/>
        </g>
      </g>
      <g id="Group_263" data-name="Group 263">
        <g id="Group_242" data-name="Group 242">
          <rect id="Rectangle_55" data-name="Rectangle 55" width="27.542" height="16.421" transform="translate(1007.485 1448.943)" fill="#ffcbbb"/>
        </g>
        <g id="Group_243" data-name="Group 243">
          <rect id="Rectangle_56" data-name="Rectangle 56" width="27.542" height="16.422" transform="translate(1007.485 1426.953)" fill="#ffcbbb"/>
        </g>
        <g id="Group_244" data-name="Group 244">
          <rect id="Rectangle_57" data-name="Rectangle 57" width="27.542" height="16.421" transform="translate(1044.109 1448.943)" fill="#ffcbbb"/>
        </g>
        <g id="Group_245" data-name="Group 245">
          <rect id="Rectangle_58" data-name="Rectangle 58" width="27.542" height="16.422" transform="translate(1044.109 1426.953)" fill="#ffcbbb"/>
        </g>
        <g id="Group_246" data-name="Group 246">
          <rect id="Rectangle_59" data-name="Rectangle 59" width="27.542" height="16.421" transform="translate(1044.109 1404.964)" fill="#ffcbbb"/>
        </g>
        <g id="Group_247" data-name="Group 247">
          <rect id="Rectangle_60" data-name="Rectangle 60" width="27.542" height="16.421" transform="translate(1079.761 1448.943)" fill="#ffcbbb"/>
        </g>
        <g id="Group_248" data-name="Group 248">
          <rect id="Rectangle_61" data-name="Rectangle 61" width="27.542" height="16.422" transform="translate(1079.761 1426.953)" fill="#ffcbbb"/>
        </g>
        <g id="Group_249" data-name="Group 249">
          <rect id="Rectangle_62" data-name="Rectangle 62" width="27.542" height="16.421" transform="translate(1113.821 1448.943)" fill="#ffcbbb"/>
        </g>
        <g id="Group_254" data-name="Group 254">
          <g id="Group_250" data-name="Group 250">
            <rect id="Rectangle_63" data-name="Rectangle 63" width="27.542" height="16.422" transform="translate(1007.485 1471.271)" fill="#ffcbbb"/>
          </g>
          <g id="Group_251" data-name="Group 251">
            <rect id="Rectangle_64" data-name="Rectangle 64" width="27.542" height="16.422" transform="translate(1044.109 1471.271)" fill="#ffcbbb"/>
          </g>
          <g id="Group_252" data-name="Group 252">
            <rect id="Rectangle_65" data-name="Rectangle 65" width="27.542" height="16.422" transform="translate(1079.761 1471.271)" fill="#ffcbbb"/>
          </g>
          <g id="Group_253" data-name="Group 253">
            <rect id="Rectangle_66" data-name="Rectangle 66" width="27.542" height="16.422" transform="translate(1113.821 1471.271)" fill="#ffcbbb"/>
          </g>
        </g>
        <g id="Group_259" data-name="Group 259">
          <g id="Group_255" data-name="Group 255">
            <rect id="Rectangle_67" data-name="Rectangle 67" width="27.542" height="16.421" transform="translate(1007.485 1493.599)" fill="#ffcbbb"/>
          </g>
          <g id="Group_256" data-name="Group 256">
            <rect id="Rectangle_68" data-name="Rectangle 68" width="27.542" height="16.421" transform="translate(1044.109 1493.599)" fill="#ffcbbb"/>
          </g>
          <g id="Group_257" data-name="Group 257">
            <rect id="Rectangle_69" data-name="Rectangle 69" width="27.542" height="16.421" transform="translate(1079.761 1493.599)" fill="#ffcbbb"/>
          </g>
          <g id="Group_258" data-name="Group 258">
            <rect id="Rectangle_70" data-name="Rectangle 70" width="27.542" height="16.421" transform="translate(1113.821 1493.599)" fill="#ffcbbb"/>
          </g>
        </g>
        <g id="Group_260" data-name="Group 260">
          <rect id="Rectangle_71" data-name="Rectangle 71" width="27.542" height="16.422" transform="translate(1113.821 1426.953)" fill="#ffcbbb"/>
        </g>
        <g id="Group_261" data-name="Group 261">
          <rect id="Rectangle_72" data-name="Rectangle 72" width="27.542" height="16.421" transform="translate(1113.821 1404.964)" fill="#ffcbbb"/>
        </g>
        <g id="Group_262" data-name="Group 262">
          <rect id="Rectangle_73" data-name="Rectangle 73" width="27.542" height="16.421" transform="translate(1113.821 1382.975)" fill="#ffcbbb"/>
        </g>
      </g>
    </g>
    <g id="Group_265" data-name="Group 265">
      <path id="Rectangle_74" data-name="Rectangle 74" d="M17.051,0H259.777a17.052,17.052,0,0,1,17.052,17.052V92.038a17.052,17.052,0,0,1-17.052,17.052H17.052A17.052,17.052,0,0,1,0,92.038V17.051A17.051,17.051,0,0,1,17.051,0Z" transform="translate(1662.083 611.761)" fill="#f77d48"/>
    </g>
    <g id="Group_267" data-name="Group 267">
      <g id="Group_266" data-name="Group 266">
        <path id="Path_134" data-name="Path 134" d="M1720.825,692.836V684.9l18.821-24.92a16.537,16.537,0,0,0,2.263-3.929,10.343,10.343,0,0,0,.8-3.816v-.075a5.562,5.562,0,0,0-1.665-4.3,6.733,6.733,0,0,0-4.734-1.534,6.429,6.429,0,0,0-4.751,1.834,8.46,8.46,0,0,0-2.208,5.238v.037h-9.2V653.4q.788-7.446,5.052-11.543a15.271,15.271,0,0,1,11.038-4.1q7.482,0,11.6,3.742t4.116,10.551v.037a19.3,19.3,0,0,1-1.254,6.7,24.393,24.393,0,0,1-3.461,6.323l-14.592,19.158h19.606v8.568Z" fill="#ffcbbb"/>
        <path id="Path_135" data-name="Path 135" d="M1777.138,693.509q-7.933,0-11.917-4.153t-3.986-11.3V653.212q0-7.221,4.023-11.338t11.88-4.115q7.893,0,11.9,4.1t4,11.356v24.844q0,7.222-4.022,11.338T1777.138,693.509Zm0-8.568q3.7,0,5.332-2.189a9.865,9.865,0,0,0,1.627-6.005V654.521a9.851,9.851,0,0,0-1.627-6.024q-1.629-2.169-5.332-2.17t-5.332,2.17a9.851,9.851,0,0,0-1.628,6.024v22.226a9.865,9.865,0,0,0,1.628,6.005Q1773.433,684.94,1777.138,684.941Z" fill="#ffcbbb"/>
        <path id="Path_136" data-name="Path 136" d="M1802.394,663.127V654h9.128v9.129Zm0,29.709v-9.13h9.128v9.13Z" fill="#ffcbbb"/>
        <path id="Path_137" data-name="Path 137" d="M1834.759,638.432v54.4h-9.13V648.983l-7,4v-10.14l7-4.415Z" fill="#ffcbbb"/>
        <path id="Path_138" data-name="Path 138" d="M1861.924,693.509a14.93,14.93,0,0,1-10.57-3.909q-4.211-3.91-5-11.057v-.038h8.943v.038a7.282,7.282,0,0,0,2.1,4.658,6.416,6.416,0,0,0,4.6,1.665,6.038,6.038,0,0,0,4.92-2.1,9.071,9.071,0,0,0,1.74-5.949v-4.677a9.29,9.29,0,0,0-1.665-5.912,5.655,5.655,0,0,0-4.7-2.1,6.751,6.751,0,0,0-3.8,1.123,7.625,7.625,0,0,0-2.675,3.143h-8.269V638.432h28.474V647H1856.5v10.925a9.217,9.217,0,0,1,3.181-1.8,11.693,11.693,0,0,1,3.779-.636q6.735,0,10.439,4.359t3.705,12.292v4.677q0,7.969-4.1,12.328T1861.924,693.509Z" fill="#ffcbbb"/>
      </g>
    </g>
    <g id="Group_268" data-name="Group 268">
      <rect id="Rectangle_75" data-name="Rectangle 75" width="2722.225" height="8.101" rx="3.267" transform="translate(174.857 1805.132)" fill="#233862"/>
    </g>
    <g id="Group_277" data-name="Group 277">
      <g id="Group_269" data-name="Group 269">
        <path id="Path_139" data-name="Path 139" d="M1064.538,1745.9v37.235s-62,2.634-89.683,2.634c-22.419,0-89.68-3.082-89.68-3.082v-37.53s59.448-2.907,84.1-2.907C989.464,1742.249,1064.538,1745.9,1064.538,1745.9Z" fill="#ed7d2b"/>
      </g>
      <g id="Group_270" data-name="Group 270">
        <path id="Path_140" data-name="Path 140" d="M1064.538,1745.9v23.525s-62,2.63-89.683,2.63c-22.419,0-89.68-3.078-89.68-3.078v-23.82s59.448-2.907,84.1-2.907C989.464,1742.249,1064.538,1745.9,1064.538,1745.9Z" fill="#f99746"/>
      </g>
      <g id="Group_271" data-name="Group 271">
        <rect id="Rectangle_76" data-name="Rectangle 76" width="42.928" height="82.248" rx="5.323" transform="translate(863.71 1722.884)" fill="#d8681d"/>
      </g>
      <g id="Group_272" data-name="Group 272">
        <path id="Path_141" data-name="Path 141" d="M906.639,1728.207V1750.3H863.71v-22.093a5.323,5.323,0,0,1,5.323-5.323h32.283A5.323,5.323,0,0,1,906.639,1728.207Z" fill="#ed7d2b"/>
      </g>
      <g id="Group_273" data-name="Group 273">
        <rect id="Rectangle_77" data-name="Rectangle 77" width="42.928" height="27.416" transform="translate(863.71 1750.3)" fill="#ef8535"/>
      </g>
      <g id="Group_274" data-name="Group 274">
        <rect id="Rectangle_78" data-name="Rectangle 78" width="42.928" height="82.248" rx="5.323" transform="translate(1028.722 1722.884)" fill="#d8681d"/>
      </g>
      <g id="Group_275" data-name="Group 275">
        <path id="Path_142" data-name="Path 142" d="M1071.65,1728.207V1750.3h-42.928v-22.093a5.323,5.323,0,0,1,5.323-5.323h32.283A5.323,5.323,0,0,1,1071.65,1728.207Z" fill="#ed7d2b"/>
      </g>
      <g id="Group_276" data-name="Group 276">
        <rect id="Rectangle_79" data-name="Rectangle 79" width="42.928" height="27.416" transform="translate(1028.722 1750.3)" fill="#ef8535"/>
      </g>
    </g>
  </g>
</svg>
