<svg id="Group_272" data-name="Group 272" xmlns="http://www.w3.org/2000/svg" width="66.738" height="116.792" viewBox="0 0 66.738 116.792">
  <g id="hexagons">
    <path id="Path_406" data-name="Path 406" d="M33.345,22.047,64.331,39.924V75.676L33.345,93.552,2.384,75.676V39.924ZM7.151,42.665v30.27L33.345,88.047,59.564,72.911V42.665L33.345,27.553ZM0,35.753,30.938,17.876V0H26.171V15.135L0,30.247v5.482ZM0,79.847,30.938,97.724v19.068H26.171V100.465L0,85.353V79.871ZM35.753,0V17.876L66.714,35.753h.024V30.247h-.024L40.52,15.135V0Zm0,116.792V97.724L66.714,79.847h.024v5.506h-.024L40.52,100.465v16.327Z" fill="#f7f7f7"/>
  </g>
</svg>
